<svg width="48" height="48" viewBox="0 0 48 48" fill="none" xmlns="http://www.w3.org/2000/svg">
<path fill-rule="evenodd" clip-rule="evenodd" d="M23.9371 26.6667H24.0438C31.4078 26.6667 37.3771 20.6973 37.3771 13.3333C37.3771 5.96933 31.4078 0 24.0438 0H23.9371C16.6224 0.0573333 10.7104 6.00533 10.7104 13.3333C10.7104 20.6613 16.6224 26.6093 23.9371 26.6667ZM34.6278 14.6667H31.9611C31.8891 15.884 31.7184 17.0533 31.4624 18.1533H33.5611C34.1141 17.0609 34.475 15.8815 34.6278 14.6667ZM31.6411 20.82H30.6211C30.4238 21.3036 30.2087 21.7636 29.9758 22.2C30.5771 21.796 31.1358 21.3333 31.6411 20.82ZM28.7118 18.1533C29.0024 17.0907 29.2051 15.9187 29.2891 14.6667H25.3771V18.1533H28.7118ZM25.3771 20.82H27.6891C27.5869 21.0173 27.4811 21.2071 27.3718 21.3893C26.7051 22.4973 26.0158 23.1827 25.3771 23.5707V20.82ZM22.7104 18.1533V14.6667H18.7131C18.7971 15.9187 18.9998 17.0907 19.2904 18.1533H22.7104ZM20.3131 20.82H22.7104V23.62C22.0491 23.2427 21.3264 22.548 20.6304 21.3893C20.5189 21.2028 20.4131 21.013 20.3131 20.82ZM16.5398 18.1533C16.2759 17.0072 16.1091 15.8408 16.0411 14.6667H13.4598C13.6144 15.9067 13.9824 17.0827 14.5264 18.1533H16.5398ZM16.4464 20.82H17.3798C17.5638 21.2707 17.7633 21.7 17.9784 22.108C17.4281 21.7277 16.916 21.2965 16.4464 20.82ZM31.9611 12C31.8931 10.8258 31.7263 9.65948 31.4624 8.51333H33.5611C34.1166 9.60471 34.4776 10.7846 34.6278 12H31.9611ZM31.6411 5.84667H30.6211C30.4238 5.36311 30.2087 4.90311 29.9758 4.46667C30.5771 4.87067 31.1358 5.33333 31.6411 5.84667ZM25.3771 5.84667H27.6891C27.5891 5.6537 27.4833 5.46383 27.3718 5.27733C26.7051 4.168 26.0158 3.484 25.3771 3.096V5.84667ZM28.7118 8.51333H25.3771V12H29.2891C29.2124 10.8216 29.019 9.65362 28.7118 8.51333ZM22.7104 3.04667V5.84667H20.3131C20.4162 5.64933 20.522 5.45956 20.6304 5.27733C21.3251 4.11867 22.0491 3.42533 22.7104 3.04667ZM22.7104 8.512H19.2904C18.9998 9.57467 18.7971 10.7467 18.7131 11.9987H22.7104V8.512ZM17.9771 4.55733C17.7638 4.96533 17.5651 5.39467 17.3811 5.84533H16.4464C16.9156 5.36893 17.4272 4.9377 17.9771 4.55733ZM16.5411 8.512H14.5278C13.9747 9.60439 13.6139 10.7838 13.4611 11.9987H16.0424C16.1144 10.78 16.2851 9.612 16.5411 8.512ZM3.6411 14.6667C2.2571 14.6347 0.867768 15.484 0.418434 16.8067C0.306434 17.1373 0.245101 17.5693 0.201101 17.9627C0.154434 18.392 0.118434 18.908 0.0904339 19.4693C0.0328703 20.7548 0.00308568 22.0413 0.00110063 23.328C-0.00956604 26.0187 0.0584342 28.8187 0.155768 29.6867C0.326434 31.2067 1.2011 32.6227 1.9611 33.8547L2.04643 33.992C2.2771 34.3653 2.5051 34.7373 2.7291 35.12C3.73443 36.8413 4.82777 38.0013 5.81843 39.0533L5.8411 39.076C6.39843 39.6667 6.91443 40.216 7.4011 40.828C6.92981 41.3241 6.66725 41.9824 6.66777 42.6667V45.3333C6.66777 46.0406 6.94872 46.7189 7.44882 47.219C7.94891 47.7191 8.62719 48 9.33443 48H20.0011C20.7083 48 21.3866 47.7191 21.8867 47.219C22.3868 46.7189 22.6678 46.0406 22.6678 45.3333V42.6667C22.6677 41.9918 22.4118 41.342 21.9516 40.8483C21.4913 40.3547 20.861 40.0539 20.1878 40.0067C20.0078 38.492 19.7744 36.4467 19.7531 35.864C19.7344 35.3627 19.5664 34.8733 19.4091 34.5013C19.2449 34.1175 19.0552 33.7451 18.8411 33.3867C18.6213 33.0142 18.3864 32.6508 18.1371 32.2973L18.0851 32.2253L18.0718 32.2053L18.0664 32.1987L18.0638 32.1947L18.0504 32.176L13.7251 26.7227L13.6851 26.6827V26.68L13.6798 26.6747L13.6478 26.64L13.5211 26.4973C13.368 26.3221 13.2195 26.143 13.0758 25.96C12.6674 25.4504 12.3114 24.9009 12.0131 24.32C11.7091 23.696 11.1331 23.0973 10.2491 23.0533C9.49577 23.0133 8.9051 23.4133 8.5611 23.7213C8.37155 23.892 8.19877 24.0804 8.0451 24.284L7.9851 23.4813L7.97843 23.3933C7.84777 21.636 7.6891 19.5093 7.1731 17.8067C6.56777 15.8147 5.22243 14.7053 3.63977 14.668M17.4998 40.0013C17.3264 38.5347 17.1104 36.6187 17.0864 35.9627L17.0611 35.8467C17.0307 35.7409 16.9937 35.6372 16.9504 35.536C16.8313 35.2604 16.6936 34.9931 16.5384 34.736C16.3593 34.4298 16.1667 34.1318 15.9611 33.8427L15.9264 33.7933L11.7024 28.468L11.6784 28.4413L11.5131 28.2547C11.3283 28.043 11.1491 27.8265 10.9758 27.6053C10.6157 27.1509 10.2857 26.6734 9.98777 26.176L9.97843 26.1907C9.85843 26.4133 9.79177 26.6173 9.77177 26.7507C9.69843 27.2227 9.73577 27.548 9.7731 27.724C9.78509 27.7801 9.80067 27.8353 9.81977 27.8893V27.8933L12.2624 32.744L9.99443 34.1293L9.9611 34.084L9.8691 33.9573C9.3931 33.3008 8.92198 32.6408 8.45577 31.9773C7.64643 30.8253 6.67843 29.412 6.2011 28.564C5.84377 27.9307 5.67843 27.092 5.5731 26.3333C5.46469 25.4613 5.38244 24.5863 5.32643 23.7093L5.32377 23.68C5.1851 21.816 5.0411 19.9733 4.61977 18.5827C4.43577 17.976 4.19843 17.6707 4.02777 17.5227C3.90512 17.4079 3.74497 17.3416 3.5771 17.336C3.2131 17.3267 2.97177 17.5787 2.9411 17.6693C2.93843 17.6773 2.92643 17.7227 2.9091 17.8213C2.88487 17.9642 2.8653 18.1078 2.85043 18.252C2.81177 18.6093 2.77843 19.068 2.75177 19.604C2.69692 20.8486 2.66891 22.0942 2.66777 23.34C2.65577 26.0587 2.7291 28.7027 2.80643 29.3907C2.90243 30.2507 3.43843 31.1693 4.31577 32.5947L4.31977 32.6C4.54643 32.968 4.79043 33.364 5.03177 33.7773C5.87577 35.2227 6.7851 36.192 7.7811 37.248L7.80377 37.272C8.5451 38.0587 9.35043 38.912 10.1104 40.0013H17.4998ZM20.0011 45.3333V42.6667H9.33443V45.3333H20.0011ZM47.5838 16.8067C47.1331 15.484 45.7451 14.6347 44.3611 14.668C42.7798 14.7053 41.4344 15.8147 40.8291 17.8067C40.3131 19.5093 40.1544 21.636 40.0238 23.3933L40.0171 23.4813L39.9571 24.284C39.7971 24.0733 39.6251 23.8858 39.4411 23.7213C39.0971 23.4147 38.5078 23.0147 37.7531 23.052C36.8691 23.0973 36.2931 23.696 35.9891 24.3187C35.6908 24.8996 35.3348 25.449 34.9264 25.9587C34.743 26.1921 34.5517 26.4193 34.3531 26.64L34.3224 26.6747L34.3171 26.6813L34.2771 26.7227L29.9531 32.176L29.9384 32.1947L29.9358 32.1987L29.9318 32.2053L29.9171 32.2253C29.9038 32.2422 29.8864 32.2662 29.8651 32.2973C29.6145 32.6499 29.3796 33.0134 29.1611 33.3867C28.9466 33.7451 28.7564 34.1175 28.5918 34.5013C28.4358 34.8733 28.2678 35.3627 28.2491 35.864C28.2278 36.4467 27.9958 38.492 27.8144 40.0067C27.1412 40.0539 26.5109 40.3547 26.0506 40.8483C25.5904 41.342 25.3345 41.9918 25.3344 42.6667V45.3333C25.3344 46.0406 25.6154 46.7189 26.1155 47.219C26.6156 47.7191 27.2939 48 28.0011 48H38.6678C39.375 48 40.0533 47.7191 40.5534 47.219C41.0535 46.7189 41.3344 46.0406 41.3344 45.3333V42.6667C41.3349 41.9817 41.0719 41.3229 40.5998 40.8267C41.0864 40.216 41.6024 39.6667 42.1598 39.076L42.1824 39.052C43.1731 38.0013 44.2664 36.8413 45.2718 35.12C45.4958 34.7373 45.7251 34.3667 45.9544 33.992L46.0398 33.8547C46.7998 32.6227 47.6744 31.2067 47.8451 29.6867C47.9424 28.8187 48.0104 26.0187 47.9998 23.328C47.9982 22.0413 47.9689 20.7548 47.9118 19.4693C47.8891 18.9662 47.8522 18.4637 47.8011 17.9627C47.7584 17.5693 47.6971 17.136 47.5838 16.8067ZM37.8918 40C38.6518 38.9107 39.4558 38.0573 40.1984 37.2707L40.2198 37.2467C41.2158 36.1907 42.1264 35.22 42.9691 33.776C43.2091 33.3627 43.4531 32.968 43.6811 32.5987L43.6851 32.592C44.5638 31.168 45.0984 30.2493 45.1944 29.3893C45.2718 28.7013 45.3438 26.0573 45.3331 23.3387C45.3278 21.9973 45.3024 20.672 45.2491 19.6027C45.2224 19.0667 45.1891 18.608 45.1504 18.2507C45.1356 18.1065 45.116 17.9629 45.0918 17.82C45.0841 17.7688 45.0734 17.718 45.0598 17.668C45.0291 17.5773 44.7878 17.3253 44.4251 17.3347C44.2568 17.3399 44.0961 17.4063 43.9731 17.5213C43.8024 17.668 43.5651 17.9747 43.3811 18.5813C42.9598 19.9707 42.8158 21.8147 42.6771 23.6787L42.6744 23.708C42.6078 24.62 42.5384 25.54 42.4278 26.332C42.3238 27.0907 42.1571 27.9293 41.8011 28.564C41.3224 29.4107 40.3544 30.824 39.5451 31.9773C39.0788 32.6403 38.6077 33.2999 38.1318 33.956L38.0384 34.0827L38.0064 34.128L35.7384 32.7413L38.1798 27.892L38.1811 27.888C38.2002 27.834 38.2158 27.7787 38.2278 27.7227C38.2651 27.5467 38.3024 27.2213 38.2291 26.7493C38.1907 26.5528 38.1209 26.3637 38.0224 26.1893L38.0131 26.1747C37.6851 26.728 37.3238 27.224 37.0264 27.604C36.8014 27.8906 36.5666 28.1694 36.3224 28.44L36.2971 28.4667L32.0744 33.792L32.0398 33.8413L31.8971 34.0453C31.7771 34.2227 31.6198 34.4653 31.4624 34.7347C31.3072 34.9917 31.1696 35.259 31.0504 35.5347C30.9989 35.6591 30.962 35.7622 30.9398 35.844C30.9296 35.8827 30.9211 35.9219 30.9144 35.9613C30.8904 36.6173 30.6744 38.5347 30.5011 40H37.8918ZM28.0011 45.3333V42.6667H38.6678V45.3333H28.0011Z" fill="#07314A"/>
</svg>
