<svg width="47" height="58" viewBox="0 0 47 58" fill="none" xmlns="http://www.w3.org/2000/svg">
<path d="M44.6667 31.3345C44.6667 44.6679 35.3333 51.3345 24.24 55.2012C23.6591 55.3981 23.0281 55.3886 22.4533 55.1745C11.3333 51.3345 2 44.6679 2 31.3345V12.6679C2 11.9606 2.28095 11.2823 2.78105 10.7822C3.28115 10.2822 3.95942 10.0012 4.66667 10.0012C10 10.0012 16.6667 6.8012 21.3067 2.74787C21.8716 2.2652 22.5903 2 23.3333 2C24.0764 2 24.7951 2.2652 25.36 2.74787C30.0267 6.82787 36.6667 10.0012 42 10.0012C42.7072 10.0012 43.3855 10.2822 43.8856 10.7822C44.3857 11.2823 44.6667 11.9606 44.6667 12.6679V31.3345Z" stroke="#07314A" stroke-width="4" stroke-linecap="round" stroke-linejoin="round"/>
</svg>
