<svg width="43" height="56" viewBox="0 0 43 56" fill="none" xmlns="http://www.w3.org/2000/svg">
<path d="M15.9285 42.664H26.7392C27.0912 39.4587 28.7259 36.816 31.3792 33.9253C31.6805 33.6 33.5979 31.6133 33.8245 31.3307C35.708 28.9777 36.8885 26.1406 37.2302 23.1461C37.5719 20.1515 37.0608 17.1214 35.7559 14.4046C34.4509 11.6878 32.4052 9.39488 29.8542 7.7898C27.3032 6.18472 24.3507 5.33281 21.3368 5.33216C18.3228 5.33152 15.37 6.18217 12.8183 7.78616C10.2666 9.39015 8.21988 11.6822 6.91378 14.3985C5.60767 17.1147 5.09532 20.1446 5.43572 23.1393C5.77613 26.1339 6.95545 28.9715 8.83788 31.3253C9.06721 31.6107 10.9899 33.6 11.2859 33.9227C13.9419 36.8133 15.5765 39.4587 15.9285 42.664ZM26.6672 47.9973H16.0005V50.664H26.6672V47.9973ZM4.67788 34.664C2.16639 31.5261 0.592405 27.7426 0.137249 23.7492C-0.317907 19.7559 0.364278 15.7152 2.10522 12.0926C3.84616 8.47007 6.57504 5.41299 9.97749 3.27355C13.38 1.13411 17.3176 -0.000643312 21.3368 2.73609e-07C25.356 0.000643859 29.2932 1.13666 32.695 3.27719C36.0968 5.41772 38.8246 8.47567 40.5644 12.0988C42.3042 15.7219 42.9851 19.7628 42.5287 23.756C42.0722 27.7492 40.497 31.5322 37.9845 34.6693C36.3312 36.728 32.0005 39.9973 32.0005 43.9973V50.664C32.0005 52.0785 31.4386 53.435 30.4384 54.4352C29.4383 55.4354 28.0817 55.9973 26.6672 55.9973H16.0005C14.5861 55.9973 13.2295 55.4354 12.2293 54.4352C11.2291 53.435 10.6672 52.0785 10.6672 50.664V43.9973C10.6672 39.9973 6.33388 36.728 4.67788 34.664ZM24.0005 21.3413H30.6672L18.6672 37.3413V26.6747H12.0005L24.0005 10.664V21.3413Z" fill="#07314A"/>
</svg>
