<svg width="58" height="55" viewBox="0 0 58 55" fill="none" xmlns="http://www.w3.org/2000/svg">
<path fill-rule="evenodd" clip-rule="evenodd" d="M28.6634 3.9853C24.2432 3.9853 20.0039 5.74125 16.8783 8.86686C13.7527 11.9925 11.9968 16.2317 11.9968 20.652C11.9968 25.0722 13.7527 29.3115 16.8783 32.4371C20.0039 35.5627 24.2432 37.3186 28.6634 37.3186C33.0837 37.3186 37.323 35.5627 40.4486 32.4371C43.5742 29.3115 45.3301 25.0722 45.3301 20.652C45.3301 16.2317 43.5742 11.9925 40.4486 8.86686C37.323 5.74125 33.0837 3.9853 28.6634 3.9853ZM7.99678 20.652C7.99893 17.6323 8.66279 14.6497 9.94165 11.9142C11.2205 9.17868 13.0833 6.75664 15.3989 4.8185C17.7146 2.88037 20.4268 1.47323 23.3448 0.696105C26.2628 -0.0810227 29.3156 -0.20926 32.2885 0.320418C35.2614 0.850095 38.0821 2.02482 40.5521 3.76193C43.0222 5.49903 45.0815 7.75632 46.5853 10.375C48.089 12.9936 49.0007 15.91 49.2561 18.9188C49.5114 21.9277 49.1044 24.956 48.0634 27.7906L54.1648 34.1053C54.8501 34.8173 55.4208 35.4093 55.8474 35.9026C56.2688 36.388 56.7008 36.9426 56.9541 37.588C57.8448 39.8413 57.1301 42.508 54.9834 43.82C54.3701 44.1986 53.6661 44.3533 53.0634 44.4546C52.4448 44.5613 51.6608 44.6413 50.7354 44.74L50.6714 44.7453C49.4474 44.876 49.2154 44.916 49.0581 44.9773C48.811 45.0739 48.5882 45.2236 48.4053 45.4157C48.2224 45.6079 48.0838 45.8378 47.9994 46.0893C47.9301 46.276 47.8901 46.5506 47.7648 47.8066L47.7594 47.8653C47.6634 48.828 47.5834 49.636 47.4848 50.2706C47.3888 50.884 47.2448 51.588 46.8901 52.204C45.6368 54.396 42.9994 55.2173 40.7114 54.2493C40.0688 53.9773 39.5221 53.5213 39.0581 53.0893C38.5781 52.6466 38.0101 52.0546 37.3248 51.3426L37.2714 51.2893L28.6634 42.2253L20.0448 51.3053L20.0048 51.3453C19.3194 52.0573 18.7488 52.6493 18.2714 53.092C17.8048 53.524 17.2581 53.98 16.6181 54.252C14.3248 55.22 11.6901 54.3986 10.4368 52.2066C10.0848 51.5906 9.93812 50.8893 9.84212 50.2706C9.74345 49.6386 9.66345 48.8306 9.57012 47.8706L9.56212 47.8093C9.43945 46.5533 9.39678 46.2813 9.33012 46.092C9.24574 45.8405 9.1072 45.6105 8.92428 45.4184C8.74136 45.2263 8.51851 45.0766 8.27145 44.98C8.11145 44.9186 7.87945 44.8786 6.65545 44.748L6.59412 44.7426C5.66878 44.644 4.88478 44.5613 4.26612 44.4573C3.66345 44.3586 2.95945 44.2013 2.34345 43.8226C0.199453 42.5106 -0.515214 39.844 0.372786 37.5906C0.628786 36.9453 1.05812 36.3906 1.47945 35.9053C1.90612 35.412 2.47679 34.82 3.16478 34.108L9.26345 27.7933C8.42083 25.5069 7.99192 23.0887 7.99678 20.652ZM11.1381 31.6093L6.08212 36.844C5.34612 37.6066 4.85012 38.1186 4.50345 38.5213C4.34819 38.6841 4.21054 38.8629 4.09278 39.0546C3.85278 39.668 4.09278 40.1853 4.41012 40.396C4.43412 40.404 4.57012 40.4493 4.92745 40.5106C5.40745 40.5906 6.07412 40.6626 7.07678 40.7693L7.27678 40.7906C8.18345 40.884 8.98612 40.9693 9.70345 41.244C11.3008 41.8573 12.5221 43.1373 13.0954 44.7426C13.3514 45.46 13.4314 46.2706 13.5221 47.2146L13.5434 47.4146C13.6448 48.452 13.7141 49.1453 13.7941 49.6546C13.8634 50.0866 13.9168 50.2253 13.9194 50.2333C14.1328 50.5933 14.5701 50.7693 15.0528 50.5666C15.0528 50.5666 15.1861 50.4946 15.5488 50.156C15.9354 49.7986 16.4288 49.2893 17.1621 48.5293L17.1674 48.524L24.4208 40.8813C21.697 40.3085 19.1168 39.1922 16.8345 37.599C14.5522 36.0059 12.6148 33.9686 11.1381 31.6093ZM32.9061 40.884C35.6306 40.3112 38.2115 39.1946 40.4942 37.601C42.777 36.0073 44.7148 33.9694 46.1914 31.6093L51.2474 36.844C51.9834 37.6066 52.4768 38.1186 52.8234 38.5213C53.1514 38.8946 53.2261 39.0413 53.2341 39.0546C53.4741 39.668 53.2341 40.1853 52.9194 40.396C52.8928 40.404 52.7594 40.4493 52.4021 40.5106C51.9194 40.5906 51.2554 40.6626 50.2501 40.7693L50.0501 40.7906C49.1461 40.884 48.3408 40.9693 47.6234 41.244C46.0288 41.8573 44.8048 43.1373 44.2314 44.7426C43.9754 45.46 43.8954 46.2706 43.8048 47.2146L43.7834 47.4146C43.6821 48.452 43.6128 49.1453 43.5328 49.6546C43.4661 50.0866 43.4101 50.2253 43.4101 50.2333C43.1968 50.5933 42.7568 50.772 42.2714 50.5666H42.2768C42.2768 50.5666 42.1434 50.4946 41.7781 50.156C41.2267 49.6274 40.6888 49.085 40.1648 48.5293L40.1594 48.524L32.9061 40.884ZM28.6661 15.4093C28.5114 15.676 28.3337 15.9906 28.1328 16.3533L27.8714 16.8226L27.8128 16.9293C27.6021 17.3133 27.2554 17.948 26.6768 18.388C26.0874 18.836 25.3754 18.9906 24.9621 19.0813L24.8474 19.1053L24.3381 19.22C23.8688 19.3266 23.4901 19.412 23.1648 19.4946C23.3754 19.7533 23.6501 20.0786 24.0074 20.4973L24.3541 20.9026L24.4341 20.9933C24.7221 21.3266 25.1888 21.86 25.4021 22.5533C25.6154 23.236 25.5408 23.94 25.4954 24.3826L25.4821 24.508L25.4288 25.0493C25.3882 25.4578 25.3518 25.8667 25.3194 26.276C25.5968 26.1533 25.9114 26.0093 26.2874 25.836L26.7648 25.6173L26.8714 25.564C27.2554 25.3853 27.9221 25.0733 28.6634 25.0733C29.4074 25.0733 30.0714 25.3853 30.4554 25.5666L30.5621 25.6173L31.0421 25.836C31.4154 26.0093 31.7301 26.156 32.0101 26.276L31.8981 25.0493L31.8448 24.508L31.8314 24.3826C31.7861 23.9373 31.7141 23.236 31.9248 22.5533C32.1381 21.86 32.6048 21.3266 32.8928 20.9933L32.9728 20.9026L33.3194 20.4973C33.6768 20.0786 33.9514 19.7533 34.1648 19.4946C33.8394 19.4146 33.4581 19.3266 32.9914 19.22L32.4821 19.1053L32.3674 19.0786C31.9514 18.9906 31.2421 18.836 30.6501 18.3853C30.0714 17.948 29.7248 17.3133 29.5168 16.932L29.4554 16.8226L29.1941 16.3533C28.995 15.9906 28.8181 15.676 28.6634 15.4093M26.0314 12.1186C26.4901 11.5186 27.3248 10.652 28.6608 10.652C29.9994 10.652 30.8341 11.5186 31.2928 12.1186C31.7301 12.6893 32.1728 13.4813 32.6261 14.2946L32.6848 14.404L32.9488 14.876L33.0981 15.1426L33.3621 15.204L33.8688 15.3186L33.9968 15.3453C34.8714 15.5453 35.7381 15.74 36.4048 16.004C37.1434 16.2946 38.1381 16.8573 38.5248 18.0973C38.9034 19.3106 38.4261 20.34 38.0101 21.004C37.6234 21.6173 37.0394 22.3 36.4368 23.0013L36.3568 23.0946L36.0101 23.5026L35.7914 23.7613L35.8234 24.1213L35.8768 24.6626L35.8874 24.7853C35.9808 25.724 36.0688 26.6306 36.0341 27.356C36.0021 28.1186 35.8208 29.2706 34.7861 30.052C33.7194 30.8626 32.5461 30.6866 31.7994 30.4706C31.1114 30.276 30.3008 29.9 29.4794 29.524L29.3648 29.4706L28.8874 29.2493L28.6608 29.1453L28.4341 29.252L27.9594 29.4706L27.8421 29.524C27.0234 29.9 26.2101 30.276 25.5221 30.4706C24.7754 30.684 23.6021 30.8626 22.5354 30.052C21.5034 29.2706 21.3221 28.1186 21.2874 27.3586C21.2554 26.6306 21.3408 25.724 21.4341 24.7853L21.4474 24.6626L21.5008 24.1213L21.5328 23.7613L21.3114 23.5026L20.9648 23.0946L20.8848 23.0013C20.2848 22.3 19.6981 21.6146 19.3114 21.0013C18.8954 20.34 18.4208 19.3106 18.7968 18.0946C19.1834 16.86 20.1808 16.2946 20.9168 16.004C21.5834 15.74 22.4528 15.5453 23.3274 15.348L23.4501 15.3213L23.9594 15.204L24.2261 15.1426L24.3754 14.876L24.6368 14.404L24.6981 14.2946C25.1514 13.4813 25.5914 12.6893 26.0314 12.1186Z" fill="#07314A"/>
</svg>
