<svg width="40" height="20" viewBox="0 0 40 20" fill="none" xmlns="http://www.w3.org/2000/svg">
<path d="M6.75928 20H29.1771C31.3414 20 33.1643 19.7979 34.4557 18.5064C35.7471 17.215 35.9243 15.4179 35.9243 13.2529V6.76C35.9243 4.595 35.7471 2.785 34.4557 1.50643C33.1521 0.214285 31.3414 0 29.1771 0H6.72143C4.595 0 2.77214 0.214999 1.48071 1.50643C0.19 2.79714 0 4.595 0 6.72143V13.2529C0 15.4171 0.19 17.2279 1.48071 18.5064C2.77214 19.7979 4.595 20 6.75928 20ZM6.405 17.9621C5.10143 17.9621 3.73357 17.785 2.975 17.0257C2.20214 16.2529 2.03786 14.9114 2.03786 13.6079V6.44286C2.03786 5.11357 2.20214 3.74643 2.96214 2.98643C3.73357 2.215 5.11429 2.03714 6.44286 2.03714H29.5314C30.8229 2.03714 32.2029 2.22714 32.9621 2.98714C33.7336 3.75857 33.8864 5.10071 33.8864 6.40429V13.6071C33.8864 14.9107 33.7214 16.2521 32.9621 17.025C32.2029 17.7964 30.8229 17.9607 29.5314 17.9607L6.405 17.9621ZM6.15214 16.2407H29.785C30.7214 16.2407 31.2407 16.1136 31.6457 15.7214C32.0507 15.3164 32.1643 14.785 32.1643 13.8607V6.15214C32.1643 5.215 32.0379 4.69643 31.6457 4.29143C31.2407 3.88643 30.7214 3.77214 29.785 3.77214H6.15214C5.215 3.77214 4.69643 3.88643 4.29143 4.29143C3.88643 4.69643 3.77143 5.21429 3.77143 6.15214V13.8607C3.77143 14.785 3.88571 15.3164 4.29071 15.7214C4.69571 16.1143 5.215 16.2407 6.15214 16.2407ZM37.6579 13.2021C38.6579 13.1393 39.9993 11.8607 39.9993 9.92357C39.9993 8 38.6571 6.72143 37.6579 6.65857V13.2021Z" fill="#065D86"/>
</svg>
