<svg width="35" height="26" viewBox="0 0 35 26" fill="none" xmlns="http://www.w3.org/2000/svg">
<path fill-rule="evenodd" clip-rule="evenodd" d="M8.98418 4.65118C9.18733 4.44808 9.46283 4.33398 9.75009 4.33398C10.0374 4.33398 10.3129 4.44808 10.516 4.65118L18.0994 12.2349C18.3024 12.438 18.4165 12.7135 18.4165 13.0008C18.4165 13.2881 18.3024 13.5636 18.0994 13.7668L10.516 21.3505C10.3117 21.5478 10.038 21.657 9.75399 21.6546C9.46995 21.6521 9.19823 21.5381 8.99737 21.3373C8.79651 21.1364 8.68258 20.8647 8.68011 20.5806C8.67764 20.2966 8.78684 20.0229 8.98418 19.8186L15.8016 13.0008L8.98418 6.18309C8.78108 5.97993 8.66699 5.70441 8.66699 5.41714C8.66699 5.12986 8.78108 4.85435 8.98418 4.65118Z" fill="#0093D4"/>
<path fill-rule="evenodd" clip-rule="evenodd" d="M17.9842 4.65118C18.1873 4.44808 18.4628 4.33398 18.7501 4.33398C19.0374 4.33398 19.3129 4.44808 19.516 4.65118L27.0994 12.2349C27.3024 12.438 27.4165 12.7135 27.4165 13.0008C27.4165 13.2881 27.3024 13.5636 27.0994 13.7668L19.516 21.3505C19.3117 21.5478 19.038 21.657 18.754 21.6546C18.47 21.6521 18.1982 21.5381 17.9974 21.3373C17.7965 21.1364 17.6826 20.8647 17.6801 20.5806C17.6777 20.2966 17.7868 20.0229 17.9842 19.8186L24.8016 13.0008L17.9842 6.18309C17.7811 5.97993 17.667 5.70441 17.667 5.41714C17.667 5.12986 17.7811 4.85435 17.9842 4.65118Z" fill="#0093D4"/>
</svg>
