<svg width="24" height="19" viewBox="0 0 24 19" fill="none" xmlns="http://www.w3.org/2000/svg">
<path d="M3.75 0C2.75544 0 1.80161 0.395088 1.09835 1.09835C0.395088 1.80161 0 2.75544 0 3.75V15.25C0 16.2446 0.395088 17.1984 1.09835 17.9017C1.80161 18.6049 2.75544 19 3.75 19H20.246C21.2406 19 22.1944 18.6049 22.8977 17.9017C23.6009 17.1984 23.996 16.2446 23.996 15.25V3.75C23.996 2.75544 23.6009 1.80161 22.8977 1.09835C22.1944 0.395088 21.2406 0 20.246 0H3.75ZM1.5 3.75C1.5 3.15326 1.73705 2.58097 2.15901 2.15901C2.58097 1.73705 3.15326 1.5 3.75 1.5H20.246C20.8427 1.5 21.415 1.73705 21.837 2.15901C22.2589 2.58097 22.496 3.15326 22.496 3.75V4.529L11.996 9.907L1.5 4.531V3.75ZM1.5 6.217L11.654 11.417C11.7598 11.4712 11.8771 11.4995 11.996 11.4995C12.1149 11.4995 12.2322 11.4712 12.338 11.417L22.496 6.215V15.251C22.496 15.8477 22.2589 16.42 21.837 16.842C21.415 17.2639 20.8427 17.501 20.246 17.501H3.751C3.15426 17.501 2.58197 17.2639 2.16001 16.842C1.73805 16.42 1.501 15.8477 1.501 15.251L1.5 6.217Z" fill="#065D86"/>
</svg>
