<svg width="19" height="25" viewBox="0 0 19 25" fill="none" xmlns="http://www.w3.org/2000/svg">
<path d="M9.45455 11.5152C8.55901 11.5152 7.70015 11.1959 7.06691 10.6276C6.43367 10.0593 6.07792 9.28854 6.07792 8.48485C6.07792 7.68116 6.43367 6.91039 7.06691 6.3421C7.70015 5.77381 8.55901 5.45455 9.45455 5.45455C10.3501 5.45455 11.2089 5.77381 11.8422 6.3421C12.4754 6.91039 12.8312 7.68116 12.8312 8.48485C12.8312 8.88279 12.7438 9.27684 12.5741 9.6445C12.4044 10.0121 12.1557 10.3462 11.8422 10.6276C11.5286 10.909 11.1564 11.1322 10.7467 11.2845C10.3371 11.4368 9.89797 11.5152 9.45455 11.5152ZM9.45455 0C6.94704 0 4.54224 0.893937 2.76917 2.48515C0.996101 4.07637 0 6.23453 0 8.48485C0 14.8485 9.45455 24.2424 9.45455 24.2424C9.45455 24.2424 18.9091 14.8485 18.9091 8.48485C18.9091 6.23453 17.913 4.07637 16.1399 2.48515C14.3668 0.893937 11.962 0 9.45455 0Z" fill="#065D86"/>
</svg>
