<svg width="372" height="91" viewBox="0 0 372 91" fill="none" xmlns="http://www.w3.org/2000/svg">
<path d="M45.2832 0C46.5036 0 47.7131 0.0488041 48.9092 0.143555L49.1533 3.18945C50.3154 3.29772 51.4639 3.45077 52.5967 3.65137L53.623 0.768555C55.966 1.20474 58.2451 1.82149 60.4463 2.60352L59.8887 5.63574C60.9728 6.03876 62.0353 6.48613 63.0752 6.97363L64.832 4.42676C66.9688 5.45095 69.0122 6.63818 70.9473 7.97168L69.6104 10.7842C70.5448 11.4486 71.4484 12.1532 72.3242 12.8896L74.7061 10.8623C76.4994 12.3967 78.1708 14.0689 79.7051 15.8623L77.6631 18.2598C78.3909 19.1364 79.0832 20.0432 79.7393 20.9775L82.5947 19.6211C83.9281 21.5561 85.1165 23.5987 86.1406 25.7354L83.5176 27.543C83.9928 28.5734 84.4307 29.625 84.8232 30.6982L87.9629 30.1221C88.7448 32.323 89.3617 34.6017 89.7979 36.9443L86.7676 38.0225C86.9578 39.1337 87.1046 40.2594 87.2061 41.3984L90.4229 41.6572C90.5176 42.8534 90.5674 44.0627 90.5674 45.2832C90.5674 46.4396 90.5227 47.5861 90.4375 48.7207L87.2061 48.9795C87.1046 50.1192 86.9588 51.2456 86.7686 52.3574L89.8311 53.4473C89.4046 55.7894 88.7963 58.0679 88.0244 60.2695L84.8232 59.6807C84.4307 60.754 83.9928 61.8055 83.5176 62.8359L86.2061 64.6895C85.1914 66.8253 84.0147 68.8688 82.6914 70.8047L79.7393 69.4023C79.0832 70.3367 78.3909 71.2435 77.6631 72.1201L79.7842 74.6104C78.2593 76.4025 76.5984 78.0751 74.8154 79.6104L72.3252 77.4902C71.4492 78.2269 70.545 78.9311 69.6104 79.5957L71.0127 82.5479C69.087 83.8799 67.055 85.0693 64.9287 86.0947L63.0752 83.4062C62.0352 83.8938 60.9728 84.3411 59.8887 84.7441L60.4785 87.9512C58.2867 88.7318 56.0173 89.3475 53.6846 89.7852L52.5967 86.7285C51.4639 86.9291 50.3154 87.0822 49.1533 87.1904L48.8945 90.4229C47.7032 90.5168 46.4987 90.5664 45.2832 90.5664C44.132 90.5664 42.9909 90.5229 41.8613 90.4385L41.6035 87.2246C40.4332 87.1261 39.2769 86.9792 38.1357 86.7871L37.0576 89.8184C34.726 89.3904 32.4576 88.7831 30.2656 88.0127L30.8418 84.873C29.7344 84.4725 28.649 84.0264 27.5869 83.5381L25.7793 86.1611C23.6543 85.1454 21.6214 83.9681 19.6953 82.6465L21.0518 79.791C20.0853 79.1155 19.148 78.4015 18.2432 77.6494L15.8457 79.6914C14.0639 78.1656 12.4028 76.5034 10.877 74.7217L12.9033 72.3408C12.1422 71.4367 11.4166 70.5018 10.7324 69.5352L7.9209 70.8721C6.59922 68.946 5.42205 66.9131 4.40625 64.7881L6.95312 63.0312C6.45227 61.9596 5.99315 60.8645 5.58203 59.7461L2.55371 60.3027C1.78316 58.1105 1.17506 55.8417 0.74707 53.5098L3.63281 52.4824C3.43037 51.3206 3.27621 50.1426 3.1709 48.9502L0.12793 48.7061C0.0434944 47.5762 3.07368e-06 46.4346 0 45.2832C3.30578e-06 44.068 0.0486232 42.8639 0.142578 41.6729L3.1709 41.4297C3.27626 40.237 3.43026 39.0586 3.63281 37.8965L0.780273 36.8818C1.21789 34.5494 1.83475 32.2804 2.61523 30.0889L5.58203 30.6338C5.99332 29.515 6.45302 28.4196 6.9541 27.3477L4.47266 25.6367C5.49784 23.5111 6.68589 21.4788 8.01758 19.5537L10.7334 20.8438C11.4173 19.8776 12.1425 18.9428 12.9033 18.0391L10.9551 15.751C12.4903 13.968 14.163 12.3071 15.9551 10.7822L18.2432 12.7305C19.148 11.9784 20.0853 11.2643 21.0518 10.5889L19.7617 7.87305C21.6974 6.54995 23.7413 5.37392 25.877 4.35938L27.5879 6.84082C28.6499 6.35257 29.7355 5.90725 30.8428 5.50684L30.2979 2.54102C32.4994 1.76918 34.778 1.16078 37.1201 0.734375L38.1367 3.59277C39.2775 3.40073 40.4336 3.25379 41.6035 3.15527L41.8467 0.12793C42.981 0.0428042 44.1271 1.0172e-05 45.2832 0ZM59.2939 67.8438C55.3333 70.2412 50.6883 71.6221 45.7207 71.6221C40.8213 71.622 36.2363 70.2783 32.3115 67.9414L24.6436 75.6807C30.5353 79.7439 37.6767 82.125 45.375 82.125C53.3195 82.125 60.6711 79.5897 66.668 75.2861L59.2939 67.8438ZM19.332 19.9014C12.8274 26.5022 8.8125 35.5632 8.8125 45.5625C8.8125 55.7543 12.9839 64.9708 19.7109 71.6016L27.2354 64.0078C22.4408 59.2517 19.4707 52.659 19.4707 45.3721C19.4707 41.9589 20.1213 38.6974 21.3066 35.7061L45.7793 60.1787L70.166 35.791C71.3303 38.7593 71.9707 41.9908 71.9707 45.3721C71.9707 52.5923 69.0543 59.1302 64.3369 63.876L71.5156 71.1211C77.9619 64.529 81.9375 55.5109 81.9375 45.5625C81.9375 35.74 78.0633 26.823 71.7607 20.2539L64.6943 27.3867L64.7383 27.4307L45.7793 46.3896L35.7803 36.3916L35.7256 36.4473L19.332 19.9014ZM45.375 9C37.4818 9 30.1718 11.4999 24.1963 15.7529L31.6084 23.2344C35.684 20.6312 40.5261 19.1221 45.7207 19.1221C50.9152 19.1221 55.7568 20.632 59.832 23.2354L66.9541 16.0469C60.9056 11.6173 53.4464 9 45.375 9Z" fill="white"/>
<path d="M79.8071 1.94664V1.09091H83.8389V1.94664H82.3359V6H81.31V1.94664H79.8071ZM84.3003 1.09091H85.5803L86.9323 4.3892H86.9898L88.3417 1.09091H89.6217V6H88.615V2.80478H88.5742L87.3038 5.97603H86.6183L85.3478 2.79279H85.3071V6H84.3003V1.09091Z" fill="white"/>
<path d="M129.876 30.8711L129.931 30.8164L139.93 40.8154L158.889 21.8564L158.844 21.8115L166.043 14.5449C172.366 21.1174 176.255 30.0492 176.255 39.8896C176.255 49.9053 172.226 58.9786 165.702 65.582L158.488 58.3008C163.205 53.5553 166.121 47.017 166.121 39.7979C166.121 36.417 165.481 33.1838 164.317 30.2158L139.93 54.6035L115.457 30.1318C114.272 33.1227 113.621 36.3853 113.621 39.7979C113.622 47.084 116.592 53.6768 121.386 58.4326L113.992 65.8926C107.286 59.2646 103.13 50.063 103.13 39.8896C103.13 29.9572 107.092 20.9506 113.52 14.3613L129.876 30.8711Z" fill="white"/>
<path d="M198.047 51.6336C198.818 51.6336 199.461 51.9066 199.975 52.4528C200.521 52.9668 200.794 53.6093 200.794 54.3803C200.794 55.1513 200.521 55.8098 199.975 56.356C199.461 56.87 198.818 57.127 198.047 57.127H183.639V57.0788C181.969 56.9181 181.053 56.0186 180.892 54.3803V26.287C180.892 26.2548 180.892 26.2227 180.892 26.1906C180.892 25.4196 181.165 24.7771 181.712 24.2631C182.258 23.717 182.9 23.4439 183.639 23.4439C183.735 23.4439 183.816 23.4439 183.88 23.4439H198.047C198.818 23.4439 199.461 23.717 199.975 24.2631C200.521 24.8092 200.794 25.4517 200.794 26.1906C200.794 26.9616 200.521 27.6201 199.975 28.1663C199.461 28.6803 198.818 28.9373 198.047 28.9373H187.639V37.3701H196.698C197.437 37.3701 198.063 37.6431 198.577 38.1893C199.091 38.7033 199.348 39.3297 199.348 40.0686C199.348 40.8075 199.091 41.4339 198.577 41.9479C198.063 42.4619 197.437 42.7189 196.698 42.7189H187.639V51.6336H198.047ZM229.034 26.2388C229.034 26.9776 228.76 27.6201 228.214 28.1663C227.7 28.6803 227.074 28.9373 226.335 28.9373H219.733V53.9466C219.733 54.8461 219.396 55.6331 218.721 56.3078C218.079 56.9503 217.292 57.2715 216.36 57.2715C215.429 57.2715 214.625 56.9503 213.951 56.3078C213.308 55.6331 212.987 54.8461 212.987 53.9466V28.9373H206.385C205.647 28.9373 205.004 28.6803 204.458 28.1663C203.944 27.6201 203.687 26.9776 203.687 26.2388C203.687 25.4678 203.944 24.8253 204.458 24.3113C205.004 23.7651 205.647 23.4921 206.385 23.4921H226.335C227.074 23.4921 227.7 23.7651 228.214 24.3113C228.76 24.8253 229.034 25.4678 229.034 26.2388ZM260.299 26.4797V53.9948C260.299 54.9264 259.961 55.7295 259.287 56.4041C258.644 57.0466 257.857 57.3679 256.925 57.3679C255.994 57.3679 255.191 57.0466 254.516 56.4041C253.874 55.7295 253.552 54.9264 253.552 53.9948V42.8153H239.192V53.9948C239.192 54.9264 238.871 55.7295 238.229 56.4041C237.586 57.0466 236.799 57.3679 235.867 57.3679C234.936 57.3679 234.133 57.0466 233.458 56.4041C232.816 55.7295 232.494 54.9264 232.494 53.9948V26.4797C232.494 25.5802 232.816 24.8092 233.458 24.1667C234.133 23.4921 234.936 23.1548 235.867 23.1548C236.799 23.1548 237.586 23.4921 238.229 24.1667C238.871 24.8092 239.192 25.5802 239.192 26.4797V37.3701H253.552V26.4797C253.552 25.5802 253.874 24.8092 254.516 24.1667C255.191 23.4921 255.994 23.1548 256.925 23.1548C257.857 23.1548 258.644 23.4921 259.287 24.1667C259.961 24.8092 260.299 25.5802 260.299 26.4797ZM272.242 26.4797V53.9948C272.242 54.9264 271.904 55.7295 271.23 56.4041C270.587 57.0466 269.8 57.3679 268.868 57.3679C267.937 57.3679 267.134 57.0466 266.459 56.4041C265.817 55.7295 265.495 54.9264 265.495 53.9948V26.4797C265.495 25.5481 265.817 24.761 266.459 24.1185C267.134 23.476 267.937 23.1548 268.868 23.1548C269.8 23.1548 270.587 23.476 271.23 24.1185C271.904 24.761 272.242 25.5481 272.242 26.4797ZM278.088 31.3466C279.565 28.7445 281.605 26.7046 284.207 25.2268C286.777 23.7812 289.669 23.0584 292.881 23.0584C296.64 23.0584 299.933 24.0221 302.76 25.9496C303.884 26.6885 304.864 27.5559 305.699 28.5518C306.566 29.7083 306.695 30.8969 306.085 32.1176C305.506 33.3384 304.527 33.9488 303.145 33.9488H302.808C301.716 33.9488 300.8 33.4508 300.061 32.455C299.419 31.5555 298.632 30.8487 297.7 30.3347C296.286 29.5316 294.664 29.13 292.833 29.13C290.873 29.13 289.139 29.5798 287.629 30.4793C286.087 31.4109 284.898 32.712 284.063 34.3825C283.196 36.053 282.762 38.0126 282.762 40.2613C282.762 42.478 283.196 44.4215 284.063 46.092C284.898 47.7946 286.087 49.0957 287.629 49.9952C289.139 50.9268 290.873 51.3926 292.833 51.3926C294.664 51.3926 296.286 50.975 297.7 50.1398C298.632 49.5936 299.419 48.8869 300.061 48.0195C300.8 47.0236 301.716 46.5257 302.808 46.5257H303.193C304.575 46.5257 305.555 47.1361 306.133 48.3568C306.743 49.5776 306.615 50.7501 305.747 51.8745C304.912 52.9025 303.932 53.786 302.808 54.5248C299.981 56.4523 296.672 57.4161 292.881 57.4161C289.669 57.4161 286.777 56.6772 284.207 55.1995C281.605 53.7538 279.565 51.73 278.088 49.1278C276.578 46.5257 275.823 43.5702 275.823 40.2613C275.823 36.9525 276.578 33.9809 278.088 31.3466Z" fill="white"/>
<path d="M255.732 13.2295V16.0645H254.841V9.69245H256.884C258.117 9.69245 259.152 10.1605 259.152 11.4565C259.152 12.3925 258.513 12.9865 257.604 13.1395L259.386 16.0645H258.306L256.686 13.2295H255.732ZM255.732 10.4485V12.4825H256.758C257.595 12.4825 258.252 12.2215 258.252 11.4565C258.252 10.6915 257.595 10.4485 256.821 10.4485H255.732ZM264.852 14.5885L265.563 15.0745C265.068 15.7495 264.249 16.2265 263.133 16.2265C261.18 16.2265 259.776 14.8315 259.776 12.8695C259.776 10.8805 261.234 9.53045 263.169 9.53045C264.042 9.53045 264.987 9.87245 265.455 10.5205L264.753 11.0605C264.447 10.6285 263.826 10.3135 263.169 10.3135C261.693 10.3135 260.748 11.4745 260.748 12.8695C260.748 14.3005 261.675 15.4345 263.142 15.4345C263.853 15.4345 264.474 15.1375 264.852 14.5885ZM267.381 12.3295C267.381 12.6535 267.12 12.9235 266.778 12.9235C266.445 12.9235 266.175 12.6625 266.175 12.3385C266.175 12.0235 266.436 11.7445 266.778 11.7445C267.12 11.7445 267.381 12.0145 267.381 12.3295ZM267.381 15.5245C267.381 15.8395 267.12 16.1185 266.778 16.1185C266.445 16.1185 266.175 15.8485 266.175 15.5335C266.175 15.2095 266.436 14.9395 266.778 14.9395C267.12 14.9395 267.381 15.2005 267.381 15.5245ZM273.247 9.69245V16.0645H272.374V10.7545L271.168 11.7625L270.655 11.1595L272.464 9.69245H273.247ZM276.836 13.0945V12.3745H277.115C277.844 12.3745 278.537 12.1315 278.537 11.3125C278.537 10.6735 278.015 10.2595 277.412 10.2595C276.881 10.2595 276.485 10.5565 276.296 11.0425L275.504 10.7635C275.819 9.99845 276.548 9.53045 277.448 9.53045C278.51 9.53045 279.41 10.1335 279.41 11.2585C279.41 11.9695 278.942 12.5365 278.285 12.7075V12.7255C279.032 12.8785 279.581 13.4635 279.581 14.2825C279.581 15.5515 278.537 16.2265 277.448 16.2265C276.44 16.2265 275.63 15.7765 275.279 14.8225L276.089 14.5525C276.278 15.1015 276.764 15.4885 277.43 15.4885C278.069 15.4885 278.708 15.0835 278.708 14.2735C278.708 13.3825 277.862 13.0945 277.106 13.0945H276.836ZM281.576 16.0645L283.286 13.4905L283.277 13.4815C283.187 13.5355 283.052 13.5805 282.908 13.6075C282.764 13.6345 282.611 13.6525 282.476 13.6525C281.36 13.6525 280.487 12.8155 280.487 11.6545C280.487 10.3855 281.441 9.53045 282.692 9.53045C283.952 9.53045 284.888 10.4215 284.888 11.6275C284.888 12.3205 284.636 12.8515 284.276 13.4365L282.611 16.0645H281.576ZM284.015 11.6185C284.015 10.8715 283.484 10.2595 282.692 10.2595C281.909 10.2595 281.369 10.8355 281.369 11.6275C281.369 12.3925 281.891 12.9595 282.683 12.9595C283.484 12.9595 284.015 12.4015 284.015 11.6185ZM287.766 9.53045C289.278 9.53045 289.935 11.0245 289.935 12.8785C289.935 14.7415 289.278 16.2265 287.766 16.2265C286.245 16.2265 285.588 14.7415 285.588 12.8785C285.588 11.0245 286.245 9.53045 287.766 9.53045ZM287.766 10.2595C286.713 10.2595 286.479 11.8075 286.479 12.8785C286.479 13.9585 286.713 15.4885 287.766 15.4885C288.801 15.4885 289.044 13.9585 289.044 12.8785C289.044 11.8075 288.801 10.2595 287.766 10.2595ZM292.848 9.53045C294.36 9.53045 295.017 11.0245 295.017 12.8785C295.017 14.7415 294.36 16.2265 292.848 16.2265C291.327 16.2265 290.67 14.7415 290.67 12.8785C290.67 11.0245 291.327 9.53045 292.848 9.53045ZM292.848 10.2595C291.795 10.2595 291.561 11.8075 291.561 12.8785C291.561 13.9585 291.795 15.4885 292.848 15.4885C293.883 15.4885 294.126 13.9585 294.126 12.8785C294.126 11.8075 293.883 10.2595 292.848 10.2595ZM297.931 9.53045C299.443 9.53045 300.1 11.0245 300.1 12.8785C300.1 14.7415 299.443 16.2265 297.931 16.2265C296.41 16.2265 295.753 14.7415 295.753 12.8785C295.753 11.0245 296.41 9.53045 297.931 9.53045ZM297.931 10.2595C296.878 10.2595 296.644 11.8075 296.644 12.8785C296.644 13.9585 296.878 15.4885 297.931 15.4885C298.966 15.4885 299.209 13.9585 299.209 12.8785C299.209 11.8075 298.966 10.2595 297.931 10.2595ZM302.248 13.0945V12.3745H302.527C303.256 12.3745 303.949 12.1315 303.949 11.3125C303.949 10.6735 303.427 10.2595 302.824 10.2595C302.293 10.2595 301.897 10.5565 301.708 11.0425L300.916 10.7635C301.231 9.99845 301.96 9.53045 302.86 9.53045C303.922 9.53045 304.822 10.1335 304.822 11.2585C304.822 11.9695 304.354 12.5365 303.697 12.7075V12.7255C304.444 12.8785 304.993 13.4635 304.993 14.2825C304.993 15.5515 303.949 16.2265 302.86 16.2265C301.852 16.2265 301.042 15.7765 300.691 14.8225L301.501 14.5525C301.69 15.1015 302.176 15.4885 302.842 15.4885C303.481 15.4885 304.12 15.0835 304.12 14.2735C304.12 13.3825 303.274 13.0945 302.518 13.0945H302.248Z" fill="white"/>
<path d="M144.483 80.9626H151.208V82.4395H142.664V70.0907H151.124V71.5675H144.483V75.3723H150.282V76.8491H144.483V80.9626ZM153.045 73.3615H154.539L154.664 74.3627H154.764C155.159 73.9956 155.615 73.7147 156.133 73.52C156.655 73.3197 157.203 73.2196 157.776 73.2196C158.778 73.2196 159.565 73.5033 160.138 74.0707C160.711 74.6325 160.997 75.5169 160.997 76.724V82.4395H159.195V76.8074C159.195 76.0843 159.033 75.567 158.711 75.2555C158.394 74.944 157.926 74.7882 157.309 74.7882C156.858 74.7882 156.413 74.8772 155.974 75.0552C155.535 75.2277 155.159 75.4947 154.848 75.8562V82.4395H153.045V73.3615ZM166.438 86.2776C165.943 86.2776 165.428 86.2414 164.894 86.1691C164.366 86.0968 163.868 85.9911 163.401 85.852V84.4002C164.43 84.7062 165.403 84.8591 166.321 84.8591C167.022 84.8591 167.589 84.7674 168.023 84.5838C168.463 84.4058 168.785 84.1193 168.991 83.7244C169.202 83.335 169.308 82.8149 169.308 82.1641V81.4382H169.216C168.894 81.7831 168.504 82.0501 168.048 82.2392C167.592 82.4283 167.083 82.5229 166.521 82.5229C165.815 82.5229 165.181 82.3671 164.619 82.0556C164.057 81.7386 163.612 81.2491 163.284 80.5871C162.956 79.9196 162.792 79.0853 162.792 78.084C162.792 76.4876 163.214 75.2777 164.06 74.4545C164.911 73.6312 166.168 73.2196 167.831 73.2196C168.388 73.2196 168.952 73.2613 169.525 73.3448C170.098 73.4226 170.626 73.5367 171.11 73.6869V81.8554C171.11 82.8956 170.938 83.7383 170.593 84.3835C170.254 85.0344 169.742 85.5127 169.058 85.8187C168.374 86.1246 167.5 86.2776 166.438 86.2776ZM167.105 81.0294C167.528 81.0294 167.931 80.9543 168.315 80.8041C168.699 80.6483 169.03 80.4175 169.308 80.1115V74.8216C168.808 74.6937 168.262 74.6297 167.673 74.6297C166.655 74.6297 165.89 74.8967 165.378 75.4307C164.866 75.9647 164.611 76.7963 164.611 77.9255C164.611 79.0435 164.83 79.8418 165.27 80.3201C165.709 80.793 166.321 81.0294 167.105 81.0294ZM173.49 82.4395V73.3615H175.292V82.4395H173.49ZM174.391 71.6009C174.001 71.6009 173.706 71.5147 173.506 71.3423C173.312 71.1643 173.214 70.914 173.214 70.5913C173.214 70.2631 173.314 70.01 173.515 69.832C173.715 69.654 174.007 69.565 174.391 69.565C174.774 69.565 175.067 69.654 175.267 69.832C175.467 70.01 175.567 70.2631 175.567 70.5913C175.567 70.914 175.467 71.1643 175.267 71.3423C175.072 71.5147 174.78 71.6009 174.391 71.6009ZM177.674 73.3615H179.167L179.292 74.3627H179.393C179.788 73.9956 180.244 73.7147 180.761 73.52C181.284 73.3197 181.832 73.2196 182.405 73.2196C183.406 73.2196 184.193 73.5033 184.766 74.0707C185.339 74.6325 185.625 75.5169 185.625 76.724V82.4395H183.823V76.8074C183.823 76.0843 183.662 75.567 183.339 75.2555C183.022 74.944 182.555 74.7882 181.937 74.7882C181.487 74.7882 181.042 74.8772 180.602 75.0552C180.163 75.2277 179.788 75.4947 179.476 75.8562V82.4395H177.674V73.3615ZM195.372 78.4511H189.231C189.258 79.1131 189.386 79.6471 189.614 80.0531C189.848 80.4536 190.196 80.7485 190.657 80.9376C191.119 81.1211 191.717 81.2129 192.451 81.2129C193.197 81.2129 194.009 81.0933 194.888 80.8541V82.2392C193.97 82.484 193.077 82.6063 192.209 82.6063C190.602 82.6063 189.4 82.2281 188.605 81.4716C187.815 80.7095 187.42 79.5191 187.42 77.9005C187.42 76.8881 187.579 76.0342 187.896 75.3389C188.218 74.638 188.683 74.1096 189.289 73.7536C189.901 73.3976 190.635 73.2196 191.492 73.2196C192.749 73.2196 193.708 73.6229 194.37 74.4295C195.038 75.2305 195.372 76.4041 195.372 77.9505V78.4511ZM191.475 74.4295C190.752 74.4295 190.201 74.6603 189.823 75.122C189.445 75.5837 189.245 76.3207 189.222 77.3331H193.67C193.647 76.3207 193.453 75.5837 193.085 75.122C192.724 74.6603 192.187 74.4295 191.475 74.4295ZM204.608 78.4511H198.467C198.495 79.1131 198.623 79.6471 198.851 80.0531C199.084 80.4536 199.432 80.7485 199.894 80.9376C200.355 81.1211 200.953 81.2129 201.688 81.2129C202.433 81.2129 203.245 81.0933 204.124 80.8541V82.2392C203.206 82.484 202.313 82.6063 201.446 82.6063C199.838 82.6063 198.636 82.2281 197.841 81.4716C197.051 80.7095 196.656 79.5191 196.656 77.9005C196.656 76.8881 196.815 76.0342 197.132 75.3389C197.454 74.638 197.919 74.1096 198.525 73.7536C199.137 73.3976 199.871 73.2196 200.728 73.2196C201.985 73.2196 202.945 73.6229 203.607 74.4295C204.274 75.2305 204.608 76.4041 204.608 77.9505V78.4511ZM200.711 74.4295C199.988 74.4295 199.437 74.6603 199.059 75.122C198.681 75.5837 198.481 76.3207 198.458 77.3331H202.906C202.883 76.3207 202.689 75.5837 202.322 75.122C201.96 74.6603 201.423 74.4295 200.711 74.4295ZM206.376 73.3615H207.861L208.003 74.5463H208.112C208.418 74.1346 208.813 73.8176 209.297 73.5951C209.786 73.3726 210.306 73.2613 210.857 73.2613C211.146 73.2613 211.419 73.2864 211.675 73.3364V74.9718C211.413 74.9273 211.107 74.905 210.757 74.905C210.284 74.905 209.808 75.0024 209.33 75.1971C208.852 75.3862 208.468 75.6643 208.179 76.0315V82.4395H206.376V73.3615ZM212.989 82.4395V73.3615H214.791V82.4395H212.989ZM213.89 71.6009C213.5 71.6009 213.206 71.5147 213.005 71.3423C212.811 71.1643 212.713 70.914 212.713 70.5913C212.713 70.2631 212.814 70.01 213.014 69.832C213.214 69.654 213.506 69.565 213.89 69.565C214.274 69.565 214.566 69.654 214.766 69.832C214.966 70.01 215.066 70.2631 215.066 70.5913C215.066 70.914 214.966 71.1643 214.766 71.3423C214.571 71.5147 214.279 71.6009 213.89 71.6009ZM217.173 73.3615H218.667L218.792 74.3627H218.892C219.287 73.9956 219.743 73.7147 220.26 73.52C220.783 73.3197 221.331 73.2196 221.904 73.2196C222.905 73.2196 223.692 73.5033 224.265 74.0707C224.838 74.6325 225.125 75.5169 225.125 76.724V82.4395H223.322V76.8074C223.322 76.0843 223.161 75.567 222.838 75.2555C222.521 74.944 222.054 74.7882 221.437 74.7882C220.986 74.7882 220.541 74.8772 220.102 75.0552C219.662 75.2277 219.287 75.4947 218.975 75.8562V82.4395H217.173V73.3615ZM230.565 86.2776C230.07 86.2776 229.556 86.2414 229.022 86.1691C228.493 86.0968 227.996 85.9911 227.528 85.852V84.4002C228.557 84.7062 229.531 84.8591 230.449 84.8591C231.15 84.8591 231.717 84.7674 232.151 84.5838C232.59 84.4058 232.913 84.1193 233.119 83.7244C233.33 83.335 233.436 82.8149 233.436 82.1641V81.4382H233.344C233.021 81.7831 232.632 82.0501 232.176 82.2392C231.72 82.4283 231.211 82.5229 230.649 82.5229C229.942 82.5229 229.308 82.3671 228.747 82.0556C228.185 81.7386 227.74 81.2491 227.412 80.5871C227.083 79.9196 226.919 79.0853 226.919 78.084C226.919 76.4876 227.342 75.2777 228.188 74.4545C229.039 73.6312 230.296 73.2196 231.959 73.2196C232.515 73.2196 233.08 73.2613 233.653 73.3448C234.226 73.4226 234.754 73.5367 235.238 73.6869V81.8554C235.238 82.8956 235.066 83.7383 234.721 84.3835C234.381 85.0344 233.87 85.5127 233.185 85.8187C232.501 86.1246 231.628 86.2776 230.565 86.2776ZM231.233 81.0294C231.656 81.0294 232.059 80.9543 232.443 80.8041C232.827 80.6483 233.158 80.4175 233.436 80.1115V74.8216C232.935 74.6937 232.39 74.6297 231.8 74.6297C230.782 74.6297 230.018 74.8967 229.506 75.4307C228.994 75.9647 228.738 76.7963 228.738 77.9255C228.738 79.0435 228.958 79.8418 229.397 80.3201C229.837 80.793 230.449 81.0294 231.233 81.0294ZM241.992 82.4395V70.0907H243.828V80.9042H250.194V82.4395H241.992ZM255.261 81.0961C255.59 81.0961 255.973 81.0488 256.413 80.9543V82.4144C255.907 82.5368 255.375 82.598 254.819 82.598C253.757 82.598 252.945 82.3338 252.383 81.8053C251.827 81.2769 251.548 80.4675 251.548 79.3773V74.8133H249.83V73.3615H251.548L251.866 70.0907H253.351V73.3615H256.296V74.8133H253.351V79.0686C253.351 79.8028 253.504 80.3257 253.81 80.6372C254.121 80.9431 254.605 81.0961 255.261 81.0961ZM261.013 82.598C260.262 82.598 259.595 82.4395 259.011 82.1224C258.432 81.8053 257.973 81.313 257.634 80.6455C257.3 79.9725 257.133 79.1214 257.133 78.0924C257.133 76.4904 257.551 75.2777 258.385 74.4545C259.225 73.6257 260.449 73.2113 262.056 73.2113C262.507 73.2113 263.038 73.2558 263.65 73.3448V68.956H265.452V82.4395H263.934L263.817 81.4382H263.717C263.4 81.7998 263.01 82.0835 262.549 82.2893C262.087 82.4951 261.575 82.598 261.013 82.598ZM261.464 81.0961C261.892 81.0961 262.295 81.0155 262.674 80.8541C263.052 80.6928 263.377 80.4397 263.65 80.0949V74.8049C263.194 74.6881 262.671 74.6297 262.081 74.6297C261.024 74.6297 260.237 74.8967 259.72 75.4307C259.208 75.9591 258.952 76.7963 258.952 77.9422C258.952 79.0658 259.169 79.8724 259.603 80.3619C260.043 80.8514 260.663 81.0961 261.464 81.0961ZM268.716 82.5563C268.343 82.5563 268.045 82.4534 267.823 82.2475C267.6 82.0362 267.489 81.7553 267.489 81.4048C267.489 81.0544 267.598 80.7763 267.815 80.5705C268.037 80.3591 268.337 80.2534 268.716 80.2534C269.094 80.2534 269.394 80.3591 269.617 80.5705C269.839 80.7763 269.951 81.0544 269.951 81.4048C269.951 81.7553 269.839 82.0362 269.617 82.2475C269.394 82.4534 269.094 82.5563 268.716 82.5563Z" fill="white"/>
</svg>
