<svg width="38" height="32" viewBox="0 0 38 32" fill="none" xmlns="http://www.w3.org/2000/svg">
<path d="M18.05 32C16.4667 32 15.1208 31.451 14.0125 30.3529C12.9042 29.2549 12.35 27.9216 12.35 26.3529H16.15C16.15 26.8863 16.3324 27.3336 16.6972 27.6951C17.062 28.0565 17.5129 28.2365 18.05 28.2353C18.5871 28.234 19.0386 28.0533 19.4047 27.6932C19.7708 27.333 19.9525 26.8863 19.95 26.3529C19.9475 25.8196 19.7651 25.3729 19.4028 25.0127C19.0405 24.6525 18.5896 24.4718 18.05 24.4706H0V20.7059H18.05C19.6333 20.7059 20.9792 21.2549 22.0875 22.3529C23.1958 23.451 23.75 24.7843 23.75 26.3529C23.75 27.9216 23.1958 29.2549 22.0875 30.3529C20.9792 31.451 19.6333 32 18.05 32ZM0 13.1765V9.41177H25.65C26.4733 9.41177 27.1542 9.1451 27.6925 8.61176C28.2308 8.07843 28.5 7.40392 28.5 6.58824C28.5 5.77255 28.2308 5.09804 27.6925 4.56471C27.1542 4.03137 26.4733 3.76471 25.65 3.76471C24.8267 3.76471 24.1458 4.03137 23.6075 4.56471C23.0692 5.09804 22.8 5.77255 22.8 6.58824H19C19 4.73726 19.6416 3.17616 20.9247 1.90494C22.2078 0.633727 23.7829 -0.00125305 25.65 1.85636e-06C27.5171 0.00125676 29.0928 0.636865 30.3772 1.90683C31.6616 3.17679 32.3025 4.73726 32.3 6.58824C32.2975 8.43922 31.6565 10.0003 30.3772 11.2715C29.0979 12.5427 27.5221 13.1777 25.65 13.1765H0ZM31.35 28.2353V24.4706C32.1733 24.4706 32.8542 24.2039 33.3925 23.6706C33.9308 23.1373 34.2 22.4627 34.2 21.6471C34.2 20.8314 33.9308 20.1569 33.3925 19.6235C32.8542 19.0902 32.1733 18.8235 31.35 18.8235H0V15.0588H31.35C33.2183 15.0588 34.7941 15.6944 36.0772 16.9656C37.3603 18.2369 38.0013 19.7973 38 21.6471C37.9987 23.4968 37.3578 25.0579 36.0772 26.3304C34.7966 27.6028 33.2209 28.2378 31.35 28.2353Z" fill="#065D86"/>
</svg>
