<svg width="19" height="20" viewBox="0 0 19 20" fill="none" xmlns="http://www.w3.org/2000/svg">
<path d="M8.7012 5.12773C11.1375 5.12773 13.1485 7.13867 13.1485 9.575C13.1485 12.05 11.1375 14.0223 8.7012 14.0223C6.2262 14.0223 4.25393 12.05 4.25393 9.575C4.25393 7.13867 6.2262 5.12773 8.7012 5.12773ZM8.7012 12.4754C10.2867 12.4754 11.5629 11.1992 11.5629 9.575C11.5629 7.98945 10.2867 6.71328 8.7012 6.71328C7.07698 6.71328 5.80081 7.98945 5.80081 9.575C5.80081 11.1992 7.11565 12.4754 8.7012 12.4754ZM14.3473 4.97305C14.3473 5.55312 13.8832 6.01719 13.3032 6.01719C12.7231 6.01719 12.259 5.55312 12.259 4.97305C12.259 4.39297 12.7231 3.92891 13.3032 3.92891C13.8832 3.92891 14.3473 4.39297 14.3473 4.97305ZM17.2864 6.01719C17.3637 7.44805 17.3637 11.7406 17.2864 13.1715C17.209 14.5637 16.8996 15.7625 15.8942 16.8066C14.8887 17.8121 13.6512 18.1215 12.259 18.1988C10.8282 18.2762 6.53557 18.2762 5.10471 18.1988C3.71252 18.1215 2.5137 17.8121 1.46956 16.8066C0.464087 15.7625 0.154712 14.5637 0.0773682 13.1715C2.44118e-05 11.7406 2.44118e-05 7.44805 0.0773682 6.01719C0.154712 4.625 0.464087 3.3875 1.46956 2.38203C2.5137 1.37656 3.71252 1.06719 5.10471 0.989843C6.53557 0.912499 10.8282 0.912499 12.259 0.989843C13.6512 1.06719 14.8887 1.37656 15.8942 2.38203C16.8996 3.3875 17.209 4.625 17.2864 6.01719ZM15.4301 14.6797C15.8942 13.5582 15.7782 10.8512 15.7782 9.575C15.7782 8.3375 15.8942 5.63047 15.4301 4.47031C15.1207 3.73555 14.5407 3.1168 13.8059 2.84609C12.6457 2.38203 9.9387 2.49805 8.7012 2.49805C7.42502 2.49805 4.71799 2.38203 3.59651 2.84609C2.82307 3.15547 2.24299 3.73555 1.93362 4.47031C1.46956 5.63047 1.58557 8.3375 1.58557 9.575C1.58557 10.8512 1.46956 13.5582 1.93362 14.6797C2.24299 15.4531 2.82307 16.0332 3.59651 16.3426C4.71799 16.8066 7.42502 16.6906 8.7012 16.6906C9.9387 16.6906 12.6457 16.8066 13.8059 16.3426C14.5407 16.0332 15.1594 15.4531 15.4301 14.6797Z" fill="#0093D4"/>
</svg>
