<svg width="206" height="61" viewBox="0 0 206 61" fill="none" xmlns="http://www.w3.org/2000/svg">
<path d="M30.1895 0C31.003 9.88403e-06 31.8091 0.0325295 32.6064 0.0957031L32.7686 2.12598C33.5431 2.19812 34.3085 2.3009 35.0635 2.43457L35.748 0.512695C37.31 0.803446 38.8295 1.21405 40.2969 1.73535L39.9248 3.75684C40.6477 4.02554 41.3564 4.32339 42.0498 4.64844L43.2217 2.9502C44.6463 3.63304 46.0077 4.42634 47.2979 5.31543L46.4062 7.19043C47.0293 7.6334 47.6329 8.10174 48.2168 8.59277L49.8037 7.24219C50.9993 8.26511 52.1138 9.3796 53.1367 10.5752L51.7754 12.1729C52.2608 12.7575 52.7226 13.3622 53.1602 13.9854L55.0635 13.0811C55.9524 14.3711 56.745 15.7328 57.4277 17.1572L55.6787 18.3623C55.9954 19.049 56.2872 19.7497 56.5488 20.4648L58.6416 20.0811C59.163 21.5485 59.5745 23.0679 59.8652 24.6299L57.8447 25.3486C57.9716 26.0895 58.0691 26.8401 58.1367 27.5996L60.2812 27.7715C60.3444 28.5688 60.3779 29.3749 60.3779 30.1885C60.3779 30.9598 60.3478 31.7247 60.291 32.4814L58.1367 32.6543C58.0691 33.4138 57.9715 34.1644 57.8447 34.9053L59.8867 35.6318C59.6024 37.1931 59.1972 38.7121 58.6826 40.1797L56.5488 39.7871C56.2872 40.5026 55.9955 41.2037 55.6787 41.8906L57.4707 43.127C56.7943 44.5506 56.01 45.9128 55.1279 47.2031L53.1602 46.2676C52.7225 46.891 52.261 47.4962 51.7754 48.0811L53.1885 49.7402C52.1719 50.9349 51.0656 52.0508 49.877 53.0742L48.2168 51.6602C47.6329 52.1512 47.0302 52.6205 46.4072 53.0635L47.3418 55.0312C46.0579 55.9194 44.7028 56.7119 43.2852 57.3955L42.0498 55.6045C41.3565 55.9295 40.6485 56.2284 39.9258 56.4971L40.3184 58.6338C38.8571 59.1542 37.3442 59.5647 35.7891 59.8564L35.0635 57.8184C34.3084 57.9521 33.5431 58.0558 32.7686 58.1279L32.5957 60.2822C31.8018 60.3448 30.9994 60.3779 30.1895 60.3779C29.4221 60.3779 28.6612 60.3482 27.9082 60.292L27.7363 58.1494C26.9559 58.0837 26.1848 57.9856 25.4238 57.8574L24.7051 59.8789C23.1506 59.5936 21.6381 59.1894 20.1768 58.6758L20.5615 56.582C19.8233 56.315 19.0996 56.0179 18.3916 55.6924L17.1865 57.4404C15.7698 56.7632 14.415 55.9778 13.1309 55.0967L14.0342 53.1943C13.3896 52.7438 12.7646 52.2673 12.1611 51.7656L10.5635 53.127C9.37597 52.11 8.26799 51.0029 7.25098 49.8154L8.60254 48.2275C8.0952 47.6248 7.61134 47.0017 7.15527 46.3574L5.28125 47.248C4.40003 45.9639 3.61379 44.6092 2.93652 43.1924L4.63477 42.0205C4.30097 41.3063 3.9947 40.5764 3.7207 39.8311L1.70215 40.2021C1.18849 38.7408 0.783379 37.2283 0.498047 35.6738L2.42188 34.9893C2.2868 34.2142 2.18449 33.4283 2.11426 32.6328L0.0849609 32.4707C0.028673 31.7175 3.03927e-06 30.9561 0 30.1885C1.07656e-05 29.3786 0.0321187 28.576 0.0947266 27.7822L2.11426 27.6201C2.1845 26.825 2.28684 26.0394 2.42188 25.2646L0.520508 24.5879C0.81222 23.0331 1.22292 21.5205 1.74316 20.0596L3.72168 20.4229C3.99581 19.6772 4.30177 18.9469 4.63574 18.2324L2.98047 17.0908C3.66388 15.6738 4.457 14.3195 5.34473 13.0361L7.15527 13.8965C7.61149 13.252 8.09502 12.6282 8.60254 12.0254L7.30371 10.5C8.32703 9.31164 9.44225 8.20487 10.6367 7.18848L12.1621 8.4873C12.7655 7.98584 13.3907 7.50997 14.0352 7.05957L13.1748 5.24902C14.4652 4.36704 15.8273 3.58257 17.251 2.90625L18.3916 4.56055C19.0995 4.23508 19.8234 3.9388 20.5615 3.67188L20.1982 1.69434C21.6661 1.17969 23.1855 0.77453 24.7471 0.490234L25.4248 2.39551C26.1851 2.26752 26.9556 2.16918 27.7354 2.10352L27.8975 0.0849609C28.6539 0.0281888 29.4185 2.32466e-07 30.1895 0ZM39.5293 45.2295C36.8889 46.8278 33.7922 47.748 30.4805 47.748C27.2143 47.748 24.1575 46.8528 21.541 45.2949L16.4297 50.4541C20.3574 53.1627 25.118 54.75 30.25 54.75C35.5461 54.75 40.4465 53.0593 44.4443 50.1904L39.5293 45.2295ZM12.8887 13.2676C8.55206 17.6681 5.875 23.7086 5.875 30.375C5.875 37.1693 8.65624 43.3129 13.1406 47.7334L18.1562 42.6719C14.9602 39.5012 12.9805 35.1057 12.9805 30.248C12.9805 27.9729 13.415 25.7987 14.2051 23.8047L30.5195 40.1191L46.7773 23.8604C47.5535 25.8392 47.9804 27.994 47.9805 30.248C47.9804 35.0613 46.0364 39.4201 42.8916 42.584L47.6768 47.4141C51.9743 43.0193 54.625 37.0074 54.625 30.375C54.625 23.8268 52.0424 17.8823 47.8408 13.5029L43.1299 18.2578L43.1592 18.2871L30.5195 30.9268L23.8535 24.2607L23.8174 24.2979L12.8887 13.2676ZM30.25 6C24.9881 6 20.1154 7.66686 16.1318 10.502L21.0723 15.4893C23.7892 13.7539 27.0175 12.7481 30.4805 12.748C33.9437 12.748 37.1717 13.7545 39.8887 15.4902L44.6367 10.6982C40.6043 7.74493 35.6312 6 30.25 6Z" fill="url(#paint0_linear_164_884)"/>
<path d="M53.5377 1.29776V0.727273H56.2256V1.29776H55.2236V4H54.5397V1.29776H53.5377ZM56.5332 0.727273H57.3866L58.2879 2.92614H58.3262L59.2275 0.727273H60.0808V4H59.4097V1.86985H59.3825L58.5355 3.98402H58.0785L57.2316 1.86186H57.2044V4H56.5332V0.727273Z" fill="url(#paint1_linear_164_884)"/>
<path d="M86.584 20.5806L86.6201 20.5435L93.2861 27.2095L105.926 14.5698L105.896 14.5405L110.694 9.6958C114.91 14.0776 117.503 20.0326 117.503 26.5933C117.503 33.27 114.816 39.318 110.468 43.7202L105.658 38.8667C108.803 35.7029 110.747 31.344 110.747 26.5308C110.747 24.2767 110.32 22.1219 109.544 20.1431L93.2861 36.4019L76.9717 20.0874C76.1817 22.0814 75.7471 24.2556 75.7471 26.5308C75.7472 31.3881 77.7271 35.783 80.9229 38.9536L75.9941 43.9282C71.5238 39.5096 68.7531 33.3753 68.7529 26.5933C68.7529 19.9717 71.3945 13.9676 75.6797 9.57471L86.584 20.5806Z" fill="#017AB1"/>
<path d="M132.031 34.0892C132.545 34.0892 132.973 34.2713 133.316 34.6353C133.68 34.978 133.862 35.4063 133.862 35.9203C133.862 36.4343 133.68 36.8734 133.316 37.2375C132.973 37.5801 132.545 37.7515 132.031 37.7515H122.426V37.7193C121.312 37.6123 120.702 37.0126 120.595 35.9203V17.1915C120.595 17.17 120.595 17.1486 120.595 17.1272C120.595 16.6132 120.777 16.1849 121.141 15.8422C121.505 15.4781 121.933 15.2961 122.426 15.2961C122.49 15.2961 122.543 15.2961 122.586 15.2961H132.031C132.545 15.2961 132.973 15.4781 133.316 15.8422C133.68 16.2063 133.862 16.6346 133.862 17.1272C133.862 17.6412 133.68 18.0803 133.316 18.4443C132.973 18.787 132.545 18.9583 132.031 18.9583H125.092V24.5802H131.132C131.624 24.5802 132.042 24.7623 132.384 25.1263C132.727 25.469 132.898 25.8866 132.898 26.3792C132.898 26.8718 132.727 27.2894 132.384 27.6321C132.042 27.9748 131.624 28.1461 131.132 28.1461H125.092V34.0892H132.031ZM152.689 17.1593C152.689 17.6519 152.507 18.0803 152.143 18.4443C151.8 18.787 151.382 18.9583 150.89 18.9583H146.489V35.6312C146.489 36.2309 146.264 36.7556 145.814 37.2053C145.386 37.6337 144.861 37.8478 144.24 37.8478C143.619 37.8478 143.083 37.6337 142.634 37.2053C142.205 36.7556 141.991 36.2309 141.991 35.6312V18.9583H137.59C137.097 18.9583 136.669 18.787 136.305 18.4443C135.962 18.0803 135.791 17.6519 135.791 17.1593C135.791 16.6453 135.962 16.217 136.305 15.8743C136.669 15.5103 137.097 15.3282 137.59 15.3282H150.89C151.382 15.3282 151.8 15.5103 152.143 15.8743C152.507 16.217 152.689 16.6453 152.689 17.1593ZM173.532 17.32V35.6633C173.532 36.2844 173.307 36.8198 172.857 37.2696C172.429 37.6979 171.904 37.9121 171.283 37.9121C170.662 37.9121 170.127 37.6979 169.677 37.2696C169.249 36.8198 169.035 36.2844 169.035 35.6633V28.2103H159.461V35.6633C159.461 36.2844 159.247 36.8198 158.819 37.2696C158.39 37.6979 157.866 37.9121 157.245 37.9121C156.624 37.9121 156.088 37.6979 155.638 37.2696C155.21 36.8198 154.996 36.2844 154.996 35.6633V17.32C154.996 16.7203 155.21 16.2063 155.638 15.778C156.088 15.3282 156.624 15.1033 157.245 15.1033C157.866 15.1033 158.39 15.3282 158.819 15.778C159.247 16.2063 159.461 16.7203 159.461 17.32V24.5802H169.035V17.32C169.035 16.7203 169.249 16.2063 169.677 15.778C170.127 15.3282 170.662 15.1033 171.283 15.1033C171.904 15.1033 172.429 15.3282 172.857 15.778C173.307 16.2063 173.532 16.7203 173.532 17.32ZM181.494 17.32V35.6633C181.494 36.2844 181.269 36.8198 180.819 37.2696C180.391 37.6979 179.866 37.9121 179.245 37.9121C178.624 37.9121 178.089 37.6979 177.639 37.2696C177.211 36.8198 176.997 36.2844 176.997 35.6633V17.32C176.997 16.6989 177.211 16.1742 177.639 15.7458C178.089 15.3175 178.624 15.1033 179.245 15.1033C179.866 15.1033 180.391 15.3175 180.819 15.7458C181.269 16.1742 181.494 16.6989 181.494 17.32ZM185.391 20.5646C186.377 18.8298 187.737 17.4699 189.471 16.4847C191.185 15.521 193.112 15.0391 195.254 15.0391C197.76 15.0391 199.955 15.6816 201.839 16.9666C202.589 17.4592 203.242 18.0374 203.799 18.7013C204.377 19.4723 204.463 20.2648 204.056 21.0786C203.671 21.8924 203.017 22.2993 202.096 22.2993H201.872C201.143 22.2993 200.533 21.9674 200.04 21.3035C199.612 20.7038 199.087 20.2326 198.466 19.89C197.524 19.3545 196.442 19.0868 195.222 19.0868C193.915 19.0868 192.759 19.3867 191.752 19.9863C190.724 20.6074 189.932 21.4748 189.375 22.5885C188.797 23.7021 188.508 25.0085 188.508 26.5077C188.508 27.9855 188.797 29.2812 189.375 30.3948C189.932 31.5299 190.724 32.3973 191.752 32.997C192.759 33.618 193.915 33.9286 195.222 33.9286C196.442 33.9286 197.524 33.6502 198.466 33.0933C199.087 32.7293 199.612 32.2581 200.04 31.6798C200.533 31.0159 201.143 30.684 201.872 30.684H202.129C203.049 30.684 203.703 31.0909 204.088 31.9047C204.495 32.7185 204.409 33.5003 203.831 34.2498C203.274 34.9352 202.621 35.5241 201.872 36.0167C199.987 37.3017 197.781 37.9442 195.254 37.9442C193.112 37.9442 191.185 37.4516 189.471 36.4665C187.737 35.5027 186.377 34.1535 185.391 32.4187C184.385 30.684 183.882 28.7136 183.882 26.5077C183.882 24.3018 184.385 22.3208 185.391 20.5646Z" fill="#017AB1"/>
<path d="M170.488 8.48646V10.3765H169.894V6.12846H171.256C172.078 6.12846 172.768 6.44046 172.768 7.30446C172.768 7.92846 172.342 8.32446 171.736 8.42646L172.924 10.3765H172.204L171.124 8.48646H170.488ZM170.488 6.63246V7.98846H171.172C171.73 7.98846 172.168 7.81446 172.168 7.30446C172.168 6.79446 171.73 6.63246 171.214 6.63246H170.488ZM176.567 9.39246L177.041 9.71646C176.711 10.1665 176.165 10.4845 175.421 10.4845C174.119 10.4845 173.183 9.55446 173.183 8.24646C173.183 6.92046 174.155 6.02046 175.445 6.02046C176.027 6.02046 176.657 6.24846 176.969 6.68046L176.501 7.04046C176.297 6.75246 175.883 6.54246 175.445 6.54246C174.461 6.54246 173.831 7.31646 173.831 8.24646C173.831 9.20046 174.449 9.95646 175.427 9.95646C175.901 9.95646 176.315 9.75846 176.567 9.39246ZM178.254 7.88646C178.254 8.10246 178.08 8.28246 177.852 8.28246C177.63 8.28246 177.45 8.10846 177.45 7.89246C177.45 7.68246 177.624 7.49646 177.852 7.49646C178.08 7.49646 178.254 7.67646 178.254 7.88646ZM178.254 10.0165C178.254 10.2265 178.08 10.4125 177.852 10.4125C177.63 10.4125 177.45 10.2325 177.45 10.0225C177.45 9.80646 177.624 9.62646 177.852 9.62646C178.08 9.62646 178.254 9.80046 178.254 10.0165ZM182.164 6.12846V10.3765H181.582V6.83646L180.778 7.50846L180.436 7.10646L181.642 6.12846H182.164ZM184.557 8.39646V7.91646H184.743C185.229 7.91646 185.691 7.75446 185.691 7.20846C185.691 6.78246 185.343 6.50646 184.941 6.50646C184.587 6.50646 184.323 6.70446 184.197 7.02846L183.669 6.84246C183.879 6.33246 184.365 6.02046 184.965 6.02046C185.673 6.02046 186.273 6.42246 186.273 7.17246C186.273 7.64646 185.961 8.02446 185.523 8.13846V8.15046C186.021 8.25246 186.387 8.64246 186.387 9.18846C186.387 10.0345 185.691 10.4845 184.965 10.4845C184.293 10.4845 183.753 10.1845 183.519 9.54846L184.059 9.36846C184.185 9.73446 184.509 9.99246 184.953 9.99246C185.379 9.99246 185.805 9.72246 185.805 9.18246C185.805 8.58846 185.241 8.39646 184.737 8.39646H184.557ZM187.717 10.3765L188.857 8.66046L188.851 8.65446C188.791 8.69046 188.701 8.72046 188.605 8.73846C188.509 8.75646 188.407 8.76846 188.317 8.76846C187.573 8.76846 186.991 8.21046 186.991 7.43646C186.991 6.59046 187.627 6.02046 188.461 6.02046C189.301 6.02046 189.925 6.61446 189.925 7.41846C189.925 7.88046 189.757 8.23446 189.517 8.62446L188.407 10.3765H187.717ZM189.343 7.41246C189.343 6.91446 188.989 6.50646 188.461 6.50646C187.939 6.50646 187.579 6.89046 187.579 7.41846C187.579 7.92846 187.927 8.30646 188.455 8.30646C188.989 8.30646 189.343 7.93446 189.343 7.41246ZM191.843 6.02046C192.851 6.02046 193.289 7.01646 193.289 8.25246C193.289 9.49446 192.851 10.4845 191.843 10.4845C190.829 10.4845 190.391 9.49446 190.391 8.25246C190.391 7.01646 190.829 6.02046 191.843 6.02046ZM191.843 6.50646C191.141 6.50646 190.985 7.53846 190.985 8.25246C190.985 8.97246 191.141 9.99246 191.843 9.99246C192.533 9.99246 192.695 8.97246 192.695 8.25246C192.695 7.53846 192.533 6.50646 191.843 6.50646ZM195.232 6.02046C196.24 6.02046 196.678 7.01646 196.678 8.25246C196.678 9.49446 196.24 10.4845 195.232 10.4845C194.218 10.4845 193.78 9.49446 193.78 8.25246C193.78 7.01646 194.218 6.02046 195.232 6.02046ZM195.232 6.50646C194.53 6.50646 194.374 7.53846 194.374 8.25246C194.374 8.97246 194.53 9.99246 195.232 9.99246C195.922 9.99246 196.084 8.97246 196.084 8.25246C196.084 7.53846 195.922 6.50646 195.232 6.50646ZM198.62 6.02046C199.628 6.02046 200.066 7.01646 200.066 8.25246C200.066 9.49446 199.628 10.4845 198.62 10.4845C197.606 10.4845 197.168 9.49446 197.168 8.25246C197.168 7.01646 197.606 6.02046 198.62 6.02046ZM198.62 6.50646C197.918 6.50646 197.762 7.53846 197.762 8.25246C197.762 8.97246 197.918 9.99246 198.62 9.99246C199.31 9.99246 199.472 8.97246 199.472 8.25246C199.472 7.53846 199.31 6.50646 198.62 6.50646ZM201.499 8.39646V7.91646H201.685C202.171 7.91646 202.633 7.75446 202.633 7.20846C202.633 6.78246 202.285 6.50646 201.883 6.50646C201.529 6.50646 201.265 6.70446 201.139 7.02846L200.611 6.84246C200.821 6.33246 201.307 6.02046 201.907 6.02046C202.615 6.02046 203.215 6.42246 203.215 7.17246C203.215 7.64646 202.903 8.02446 202.465 8.13846V8.15046C202.963 8.25246 203.329 8.64246 203.329 9.18846C203.329 10.0345 202.633 10.4845 201.907 10.4845C201.235 10.4845 200.695 10.1845 200.461 9.54846L201.001 9.36846C201.127 9.73446 201.451 9.99246 201.895 9.99246C202.321 9.99246 202.747 9.72246 202.747 9.18246C202.747 8.58846 202.183 8.39646 201.679 8.39646H201.499Z" fill="black"/>
<path d="M96.3214 54.6419H100.805V55.6265H95.1088V47.394H100.749V48.3785H96.3214V50.915H100.187V51.8996H96.3214V54.6419ZM102.03 49.5745H103.026L103.109 50.242H103.176C103.439 49.9972 103.743 49.8099 104.088 49.6802C104.437 49.5467 104.802 49.4799 105.184 49.4799C105.851 49.4799 106.376 49.669 106.758 50.0473C107.14 50.4218 107.331 51.0114 107.331 51.8162V55.6265H106.129V51.8718C106.129 51.3897 106.022 51.0448 105.807 50.8372C105.595 50.6295 105.284 50.5257 104.872 50.5257C104.572 50.5257 104.275 50.585 103.982 50.7037C103.689 50.8186 103.439 50.9966 103.231 51.2377V55.6265H102.03V49.5745ZM110.958 58.1852C110.628 58.1852 110.285 58.1611 109.929 58.1129C109.577 58.0647 109.245 57.9942 108.934 57.9015V56.9337C109.62 57.1376 110.269 57.2396 110.88 57.2396C111.348 57.2396 111.726 57.1784 112.015 57.056C112.308 56.9374 112.523 56.7464 112.66 56.4831C112.801 56.2235 112.872 55.8768 112.872 55.4429V54.959H112.811C112.595 55.1889 112.336 55.3669 112.032 55.493C111.728 55.619 111.388 55.6821 111.014 55.6821C110.543 55.6821 110.12 55.5783 109.746 55.3706C109.371 55.1592 109.074 54.8329 108.856 54.3916C108.637 53.9466 108.527 53.3903 108.527 52.7228C108.527 51.6585 108.809 50.852 109.373 50.3032C109.94 49.7543 110.778 49.4799 111.887 49.4799C112.258 49.4799 112.634 49.5077 113.016 49.5633C113.398 49.6153 113.751 49.6913 114.073 49.7914V55.2371C114.073 55.9305 113.958 56.4924 113.728 56.9225C113.502 57.3564 113.161 57.6753 112.705 57.8793C112.249 58.0832 111.667 58.1852 110.958 58.1852ZM111.403 54.6864C111.685 54.6864 111.954 54.6363 112.21 54.5362C112.466 54.4324 112.686 54.2785 112.872 54.0745V50.5479C112.538 50.4626 112.175 50.42 111.782 50.42C111.103 50.42 110.593 50.598 110.252 50.954C109.911 51.31 109.74 51.8644 109.74 52.6172C109.74 53.3625 109.887 53.8947 110.18 54.2136C110.472 54.5288 110.88 54.6864 111.403 54.6864ZM115.659 55.6265V49.5745H116.861V55.6265H115.659ZM116.26 48.4008C116.001 48.4008 115.804 48.3433 115.67 48.2283C115.541 48.1097 115.476 47.9428 115.476 47.7277C115.476 47.5089 115.543 47.3402 115.676 47.2215C115.81 47.1029 116.004 47.0435 116.26 47.0435C116.516 47.0435 116.711 47.1029 116.844 47.2215C116.978 47.3402 117.044 47.5089 117.044 47.7277C117.044 47.9428 116.978 48.1097 116.844 48.2283C116.714 48.3433 116.52 48.4008 116.26 48.4008ZM118.449 49.5745H119.445L119.528 50.242H119.595C119.858 49.9972 120.162 49.8099 120.507 49.6802C120.856 49.5467 121.221 49.4799 121.603 49.4799C122.27 49.4799 122.795 49.669 123.177 50.0473C123.559 50.4218 123.75 51.0114 123.75 51.8162V55.6265H122.548V51.8718C122.548 51.3897 122.441 51.0448 122.226 50.8372C122.014 50.6295 121.703 50.5257 121.291 50.5257C120.991 50.5257 120.694 50.585 120.401 50.7037C120.108 50.8186 119.858 50.9966 119.65 51.2377V55.6265H118.449V49.5745ZM130.247 52.9676H126.153C126.172 53.4089 126.257 53.7649 126.409 54.0356C126.565 54.3026 126.797 54.4991 127.105 54.6252C127.412 54.7476 127.811 54.8088 128.301 54.8088C128.797 54.8088 129.339 54.729 129.925 54.5696V55.493C129.313 55.6561 128.718 55.7377 128.139 55.7377C127.068 55.7377 126.267 55.4855 125.736 54.9812C125.21 54.4732 124.946 53.6796 124.946 52.6005C124.946 51.9255 125.052 51.3563 125.263 50.8928C125.479 50.4255 125.788 50.0732 126.192 49.8359C126.6 49.5986 127.09 49.4799 127.661 49.4799C128.499 49.4799 129.139 49.7488 129.58 50.2865C130.025 50.8205 130.247 51.6029 130.247 52.6338V52.9676ZM127.65 50.2865C127.168 50.2865 126.801 50.4404 126.548 50.7482C126.296 51.0559 126.163 51.5473 126.148 52.2222H129.113C129.098 51.5473 128.968 51.0559 128.723 50.7482C128.482 50.4404 128.124 50.2865 127.65 50.2865ZM136.405 52.9676H132.311C132.329 53.4089 132.415 53.7649 132.567 54.0356C132.723 54.3026 132.954 54.4991 133.262 54.6252C133.57 54.7476 133.969 54.8088 134.458 54.8088C134.955 54.8088 135.496 54.729 136.082 54.5696V55.493C135.47 55.6561 134.875 55.7377 134.297 55.7377C133.225 55.7377 132.424 55.4855 131.894 54.9812C131.367 54.4732 131.104 53.6796 131.104 52.6005C131.104 51.9255 131.21 51.3563 131.421 50.8928C131.636 50.4255 131.946 50.0732 132.35 49.8359C132.758 49.5986 133.247 49.4799 133.818 49.4799C134.656 49.4799 135.296 49.7488 135.737 50.2865C136.182 50.8205 136.405 51.6029 136.405 52.6338V52.9676ZM133.807 50.2865C133.325 50.2865 132.958 50.4404 132.706 50.7482C132.454 51.0559 132.32 51.5473 132.305 52.2222H135.27C135.255 51.5473 135.126 51.0559 134.881 50.7482C134.64 50.4404 134.282 50.2865 133.807 50.2865ZM137.584 49.5745H138.574L138.669 50.3643H138.741C138.945 50.0899 139.208 49.8785 139.531 49.7302C139.857 49.5819 140.204 49.5077 140.571 49.5077C140.764 49.5077 140.945 49.5244 141.116 49.5578V50.648C140.942 50.6184 140.738 50.6035 140.504 50.6035C140.189 50.6035 139.872 50.6684 139.553 50.7982C139.234 50.9243 138.978 51.1097 138.785 51.3545V55.6265H137.584V49.5745ZM141.992 55.6265V49.5745H143.194V55.6265H141.992ZM142.593 48.4008C142.333 48.4008 142.137 48.3433 142.003 48.2283C141.873 48.1097 141.809 47.9428 141.809 47.7277C141.809 47.5089 141.875 47.3402 142.009 47.2215C142.142 47.1029 142.337 47.0435 142.593 47.0435C142.849 47.0435 143.043 47.1029 143.177 47.2215C143.31 47.3402 143.377 47.5089 143.377 47.7277C143.377 47.9428 143.31 48.1097 143.177 48.2283C143.047 48.3433 142.852 48.4008 142.593 48.4008ZM144.782 49.5745H145.777L145.861 50.242H145.928C146.191 49.9972 146.495 49.8099 146.84 49.6802C147.188 49.5467 147.554 49.4799 147.936 49.4799C148.603 49.4799 149.128 49.669 149.51 50.0473C149.892 50.4218 150.083 51.0114 150.083 51.8162V55.6265H148.881V51.8718C148.881 51.3897 148.774 51.0448 148.559 50.8372C148.347 50.6295 148.036 50.5257 147.624 50.5257C147.324 50.5257 147.027 50.585 146.734 50.7037C146.441 50.8186 146.191 50.9966 145.983 51.2377V55.6265H144.782V49.5745ZM153.71 58.1852C153.38 58.1852 153.037 58.1611 152.681 58.1129C152.329 58.0647 151.997 57.9942 151.685 57.9015V56.9337C152.371 57.1376 153.02 57.2396 153.632 57.2396C154.099 57.2396 154.478 57.1784 154.767 57.056C155.06 56.9374 155.275 56.7464 155.412 56.4831C155.553 56.2235 155.623 55.8768 155.623 55.4429V54.959H155.562C155.347 55.1889 155.088 55.3669 154.784 55.493C154.479 55.619 154.14 55.6821 153.766 55.6821C153.295 55.6821 152.872 55.5783 152.497 55.3706C152.123 55.1592 151.826 54.8329 151.607 54.3916C151.389 53.9466 151.279 53.3903 151.279 52.7228C151.279 51.6585 151.561 50.852 152.125 50.3032C152.692 49.7543 153.53 49.4799 154.639 49.4799C155.01 49.4799 155.386 49.5077 155.768 49.5633C156.15 49.6153 156.502 49.6913 156.825 49.7914V55.2371C156.825 55.9305 156.71 56.4924 156.48 56.9225C156.254 57.3564 155.913 57.6753 155.457 57.8793C155 58.0832 154.418 58.1852 153.71 58.1852ZM154.155 54.6864C154.437 54.6864 154.706 54.6363 154.962 54.5362C155.217 54.4324 155.438 54.2785 155.623 54.0745V50.5479C155.29 50.4626 154.926 50.42 154.533 50.42C153.855 50.42 153.345 50.598 153.004 50.954C152.662 51.31 152.492 51.8644 152.492 52.6172C152.492 53.3625 152.638 53.8947 152.931 54.2136C153.224 54.5288 153.632 54.6864 154.155 54.6864ZM161.328 55.6265V47.394H162.552V54.603H166.796V55.6265H161.328ZM170.174 54.7309C170.393 54.7309 170.649 54.6994 170.942 54.6363V55.6098C170.604 55.6914 170.25 55.7322 169.879 55.7322C169.171 55.7322 168.629 55.556 168.255 55.2037C167.884 54.8514 167.699 54.3119 167.699 53.585V50.5423H166.553V49.5745H167.699L167.91 47.394H168.9V49.5745H170.864V50.5423H168.9V53.3792C168.9 53.8687 169.002 54.2173 169.206 54.425C169.414 54.6289 169.736 54.7309 170.174 54.7309ZM174.009 55.7322C173.508 55.7322 173.063 55.6265 172.674 55.4151C172.288 55.2037 171.982 54.8755 171.756 54.4305C171.533 53.9818 171.422 53.4144 171.422 52.7284C171.422 51.6604 171.7 50.852 172.256 50.3032C172.816 49.7506 173.632 49.4743 174.704 49.4743C175.004 49.4743 175.358 49.504 175.766 49.5633V46.6375H176.968V55.6265H175.955L175.878 54.959H175.811C175.599 55.2 175.34 55.3891 175.032 55.5263C174.724 55.6635 174.383 55.7322 174.009 55.7322ZM174.309 54.7309C174.594 54.7309 174.863 54.6771 175.115 54.5696C175.368 54.462 175.585 54.2933 175.766 54.0634V50.5368C175.462 50.4589 175.114 50.42 174.721 50.42C174.016 50.42 173.491 50.598 173.146 50.954C172.805 51.3063 172.635 51.8644 172.635 52.6283C172.635 53.3774 172.779 53.9151 173.068 54.2414C173.361 54.5677 173.775 54.7309 174.309 54.7309ZM179.143 55.7043C178.895 55.7043 178.697 55.6357 178.548 55.4985C178.4 55.3576 178.326 55.1703 178.326 54.9367C178.326 54.7031 178.398 54.5177 178.543 54.3805C178.691 54.2395 178.891 54.1691 179.143 54.1691C179.396 54.1691 179.596 54.2395 179.744 54.3805C179.893 54.5177 179.967 54.7031 179.967 54.9367C179.967 55.1703 179.893 55.3576 179.744 55.4985C179.596 55.6357 179.396 55.7043 179.143 55.7043Z" fill="black"/>
<defs>
<linearGradient id="paint0_linear_164_884" x1="53.4243" y1="2.51563" x2="53.4243" y2="60.3779" gradientUnits="userSpaceOnUse">
<stop stop-color="#0093D4"/>
<stop offset="1" stop-color="#000407"/>
</linearGradient>
<linearGradient id="paint1_linear_164_884" x1="56.8779" y1="0" x2="56.8779" y2="5" gradientUnits="userSpaceOnUse">
<stop stop-color="#017AB1"/>
<stop offset="1" stop-color="#000407"/>
</linearGradient>
</defs>
</svg>
