<svg width="64" height="64" viewBox="0 0 64 64" fill="none" xmlns="http://www.w3.org/2000/svg">
<path d="M17.8281 49.0002L26.3421 40.4862L23.5141 37.6582L15.0001 46.1722L13.4141 44.5862C13.039 44.2113 12.5304 44.0006 12.0001 44.0006C11.4697 44.0006 10.9611 44.2113 10.5861 44.5862L2.58606 52.5862C2.21112 52.9613 2.00049 53.4699 2.00049 54.0002C2.00049 54.5305 2.21112 55.0391 2.58606 55.4142L8.58606 61.4142C8.96112 61.7891 9.46973 61.9998 10.0001 61.9998C10.5304 61.9998 11.039 61.7891 11.4141 61.4142L19.4141 53.4142C19.789 53.0391 19.9996 52.5305 19.9996 52.0002C19.9996 51.4699 19.789 50.9613 19.4141 50.5862L17.8281 49.0002ZM10.0001 57.1722L6.82806 54.0002L12.0001 48.8282L15.1721 52.0002L10.0001 57.1722Z" fill="#07314A"/>
<path d="M48 59.9998C44.8186 59.9961 41.7685 58.7307 39.5188 56.481C37.2692 54.2314 36.0037 51.1813 36 47.9998C35.9999 46.9543 36.1412 45.9135 36.42 44.9058L19.096 27.5798C18.0867 27.8542 17.0459 27.9954 16 27.9998C14.0449 28.0077 12.1177 27.5357 10.3874 26.6254C8.65706 25.7151 7.1765 24.3942 6.07549 22.7785C4.97448 21.1628 4.28665 19.3017 4.0723 17.3583C3.85794 15.4149 4.12361 13.4486 4.84601 11.6318L5.96201 8.78984L12.586 15.4138C12.9667 15.7779 13.4732 15.9811 14 15.9811C14.5268 15.9811 15.0333 15.7779 15.414 15.4138C15.789 15.0388 15.9996 14.5302 15.9996 13.9998C15.9996 13.4695 15.789 12.9609 15.414 12.5858L8.78601 5.95785L11.632 4.84385C13.449 4.12189 15.4153 3.85663 17.3587 4.0713C19.302 4.28598 21.163 4.97404 22.7786 6.07518C24.3942 7.17632 25.715 8.65693 26.6253 10.3872C27.5357 12.1175 28.0077 14.0447 28 15.9998C28.0001 17.0454 27.8588 18.0862 27.58 19.0938L44.906 36.4198C45.9147 36.1457 46.9548 36.0045 48 35.9998C49.9552 35.992 51.8824 36.464 53.6127 37.3743C55.343 38.2846 56.8235 39.6055 57.9245 41.2212C59.0255 42.8369 59.7134 44.698 59.9277 46.6414C60.1421 48.5848 59.8764 50.551 59.154 52.3678L58.04 55.2098L51.414 48.5858C51.0334 48.2224 50.5273 48.0196 50.001 48.0196C49.4747 48.0196 48.9687 48.2224 48.588 48.5858C48.2128 48.9606 48.0018 49.4691 48.0014 49.9994C48.0011 50.5298 48.2113 51.0385 48.586 51.4138L55.212 58.0398L52.368 59.1558C50.9773 59.707 49.4959 59.9932 48 59.9998ZM20.126 22.9518L41.046 43.8758L40.568 45.0938C40.0996 46.2648 39.9165 47.5304 40.0338 48.7862C40.1512 50.0419 40.5656 51.2517 41.2428 52.3156C41.92 53.3795 42.8407 54.2671 43.9287 54.9049C45.0167 55.5427 46.2408 55.9126 47.5 55.9838L45.758 54.2438C45.2008 53.6867 44.7587 53.0252 44.4571 52.2972C44.1555 51.5692 44.0003 50.7889 44.0003 50.0008C44.0003 49.2128 44.1555 48.4325 44.4571 47.7045C44.7587 46.9765 45.2008 46.315 45.758 45.7578C46.9006 44.6655 48.4203 44.0559 50.001 44.0559C51.5817 44.0559 53.1015 44.6655 54.244 45.7578L55.984 47.4998C55.9124 46.2406 55.5423 45.0164 54.9042 43.9285C54.2662 42.8405 53.3785 41.9199 52.3144 41.2427C51.2503 40.5655 50.0404 40.1511 48.7846 40.0338C47.5288 39.9164 46.2631 40.0995 45.092 40.5678L43.874 41.0458L22.954 20.1258L23.434 18.9058C23.902 17.7347 24.0847 16.469 23.9671 15.2133C23.8494 13.9576 23.4348 12.7479 22.7574 11.6841C22.08 10.6203 21.1593 9.73279 20.0713 9.09497C18.9833 8.45714 17.7592 8.08726 16.5 8.01584L18.24 9.75584C18.7973 10.313 19.2393 10.9745 19.5409 11.7025C19.8425 12.4305 19.9977 13.2108 19.9977 13.9988C19.9977 14.7869 19.8425 15.5672 19.5409 16.2952C19.2393 17.0232 18.7973 17.6847 18.24 18.2418C17.0975 19.3342 15.5777 19.9438 13.997 19.9438C12.4163 19.9438 10.8966 19.3342 9.75401 18.2418L8.01401 16.4998C8.0853 17.759 8.45513 18.9832 9.09297 20.0712C9.7308 21.1592 10.6183 22.0798 11.6823 22.7571C12.7462 23.4343 13.956 23.8487 15.2117 23.966C16.4674 24.0834 17.733 23.9003 18.904 23.4318L20.126 22.9518Z" fill="#07314A"/>
<path d="M58.246 5.69997C57.1035 4.60765 55.5837 3.99805 54.003 3.99805C52.4224 3.99805 50.9026 4.60765 49.76 5.69997L34.8 20.66L37.628 23.488L52.5881 8.52797C52.969 8.16436 53.4754 7.96149 54.002 7.96149C54.5287 7.96149 55.0351 8.16436 55.416 8.52797C55.791 8.90302 56.0016 9.41164 56.0016 9.94197C56.0016 10.4723 55.791 10.9809 55.416 11.356L40.4561 26.316L43.284 29.146L58.244 14.186C59.368 13.0599 59.9993 11.534 59.9993 9.94297C59.9993 8.35198 59.37 6.82599 58.246 5.69997Z" fill="#07314A"/>
</svg>
