<svg width="24" height="32" viewBox="0 0 24 32" fill="none" xmlns="http://www.w3.org/2000/svg">
<path d="M14.9675 2.00288L12.3964 13.8753L21.7109 13.9028L9.0321 29.9976L11.6033 16.9361L2.28935 16.9075L14.9675 2.00288ZM14.9693 6.25899e-05C14.9077 6.25899e-05 14.8462 0.00203414 14.7858 0.00600853C14.3836 0.0345803 14.1169 0.152748 13.8008 0.339513C13.6227 0.443829 13.4622 0.569562 13.3239 0.713044C13.2824 0.756116 13.2432 0.800897 13.2065 0.847234L0.437157 15.6998C-0.0670542 16.3072 -0.141119 17.1089 0.246297 17.7788C0.633144 18.4488 1.41538 18.8734 2.27283 18.8789L8.85093 18.9209L6.78281 29.6296C6.58625 30.5499 7.14459 31.4672 8.12737 31.8368C8.41298 31.9446 8.72063 32.0002 9.0315 32C9.74765 32 10.3362 31.7056 10.7778 31.1738L23.5631 15.0789C24.0673 14.4715 24.1408 13.6689 23.7539 13C23.3671 12.33 22.5848 11.9054 21.7274 11.8999L15.1493 11.8899L17.1952 2.47401C17.2385 2.31986 17.2604 2.16164 17.2602 2.00284C17.2602 0.919305 16.2785 0.0360512 15.0502 0.00100142C15.0229 1.16581e-10 14.996 0 14.9693 0L14.9693 6.25899e-05Z" fill="#065D86"/>
</svg>
