<svg width="32" height="32" viewBox="0 0 32 32" fill="none" xmlns="http://www.w3.org/2000/svg">
<path d="M14.6667 22.6663L17.3333 25.333C17.596 25.5957 17.9078 25.804 18.2509 25.9461C18.5941 26.0883 18.9619 26.1614 19.3333 26.1614C19.7048 26.1614 20.0726 26.0883 20.4157 25.9461C20.7589 25.804 21.0707 25.5957 21.3333 25.333C21.596 25.0704 21.8043 24.7586 21.9465 24.4154C22.0886 24.0722 22.1618 23.7044 22.1618 23.333C22.1618 22.9616 22.0886 22.5938 21.9465 22.2506C21.8043 21.9075 21.596 21.5957 21.3333 21.333" stroke="#065D86" stroke-width="2" stroke-linecap="round" stroke-linejoin="round"/>
<path d="M18.6667 18.6664L22 21.9997C22.5304 22.5301 23.2499 22.8281 24 22.8281C24.7501 22.8281 25.4696 22.5301 26 21.9997C26.5304 21.4693 26.8284 20.7498 26.8284 19.9997C26.8284 19.2495 26.5304 18.5301 26 17.9997L20.8267 12.8264C20.0767 12.0773 19.06 11.6565 18 11.6565C16.94 11.6565 15.9233 12.0773 15.1733 12.8264L14 13.9997C13.4696 14.5301 12.7501 14.8281 12 14.8281C11.2499 14.8281 10.5304 14.5301 10 13.9997C9.46956 13.4693 9.17157 12.7498 9.17157 11.9997C9.17157 11.2495 9.46956 10.5301 10 9.9997L13.7467 6.25303C14.963 5.03989 16.5492 4.2671 18.2542 4.05699C19.9592 3.84689 21.6855 4.21147 23.16 5.09303L23.7867 5.46636C24.3544 5.80901 25.0294 5.92785 25.68 5.79969L28 5.33303" stroke="#065D86" stroke-width="2" stroke-linecap="round" stroke-linejoin="round"/>
<path d="M28 4L29.3333 18.6667H26.6667" stroke="#065D86" stroke-width="2" stroke-linecap="round" stroke-linejoin="round"/>
<path d="M4 4L2.66667 18.6667L11.3333 27.3333C11.8638 27.8638 12.5832 28.1618 13.3333 28.1618C14.0835 28.1618 14.8029 27.8638 15.3333 27.3333C15.8638 26.8029 16.1618 26.0835 16.1618 25.3333C16.1618 24.5832 15.8638 23.8638 15.3333 23.3333" stroke="#065D86" stroke-width="2" stroke-linecap="round" stroke-linejoin="round"/>
<path d="M4 5.33301H14.6667" stroke="#065D86" stroke-width="2" stroke-linecap="round" stroke-linejoin="round"/>
</svg>
