<svg width="35" height="35" viewBox="0 0 35 35" fill="none" xmlns="http://www.w3.org/2000/svg">
<path d="M17.2917 1.29199V4.84676M17.2917 29.7372V33.292M4.84724 17.2884H1.29169M33.2917 17.2884H29.7361M29.7361 4.84676L26.1806 8.40152M4.84724 4.84676L8.4028 8.40152M8.4028 26.1754L4.84724 29.7301M29.7361 29.7301L26.1806 26.1754M24.4028 17.2884C24.4028 19.174 23.6536 20.9823 22.32 22.3156C20.9864 23.6489 19.1777 24.398 17.2917 24.398C15.4057 24.398 13.597 23.6489 12.2634 22.3156C10.9298 20.9823 10.1806 19.174 10.1806 17.2884C10.1806 15.4029 10.9298 13.5945 12.2634 12.2612C13.597 10.9279 15.4057 10.1789 17.2917 10.1789C19.1777 10.1789 20.9864 10.9279 22.32 12.2612C23.6536 13.5945 24.4028 15.4029 24.4028 17.2884Z" stroke="#065D86" stroke-width="2.58333" stroke-linecap="round" stroke-linejoin="round"/>
</svg>
