<svg width="30" height="21" viewBox="0 0 30 21" fill="none" xmlns="http://www.w3.org/2000/svg">
<path d="M18.8281 0.859375V4.67773H27.2295L27.249 4.74121L29.124 10.4688L29.1318 10.4932L29.1406 10.5137V17.2773H26.373L26.208 17.9238C25.8799 19.2116 24.7531 20.1406 23.4375 20.1406C22.1219 20.1406 20.9951 19.2116 20.667 17.9238L20.502 17.2773H11.373L11.208 17.9238C10.8799 19.2116 9.7531 20.1406 8.4375 20.1406C7.1219 20.1406 5.99513 19.2116 5.66699 17.9238L5.50195 17.2773H2.73438V12.3135H2.89062V17.0869H5.50195L5.66699 16.4395C5.99517 15.1518 7.12195 14.2227 8.4375 14.2227C9.75305 14.2227 10.8798 15.1518 11.208 16.4395L11.373 17.0869H18.6719V1.0498H0.859375V0.859375H18.8281ZM8.4375 14.4131C6.90122 14.4131 5.70322 15.6555 5.70312 17.1816C5.70312 18.7078 6.90116 19.9502 8.4375 19.9502C9.97384 19.9502 11.1719 18.7078 11.1719 17.1816C11.1718 15.6555 9.97378 14.4131 8.4375 14.4131ZM23.4375 14.4131C21.9012 14.4131 20.7032 15.6555 20.7031 17.1816C20.7031 18.7078 21.9012 19.9502 23.4375 19.9502C24.9738 19.9502 26.1719 18.7078 26.1719 17.1816C26.1718 15.6555 24.9738 14.4131 23.4375 14.4131ZM6.64062 8.49609V8.68652H2.73438V8.49609H6.64062ZM8.51562 4.67773V4.86816H1.79688V4.67773H8.51562ZM28.9844 10.4814L28.9414 10.3506L27.3301 5.45801L27.1348 4.86816H18.8281V17.0869H20.502L20.667 16.4395C20.9952 15.1518 22.1219 14.2227 23.4375 14.2227C24.7531 14.2227 25.8798 15.1518 26.208 16.4395L26.373 17.0869H28.9844V10.4814Z" fill="#A72831" stroke="#414141" stroke-width="1.71875"/>
</svg>
