<svg width="25" height="27" viewBox="0 0 25 27" fill="none" xmlns="http://www.w3.org/2000/svg">
<mask id="path-1-inside-1_3_44" fill="white">
<path d="M1.73379 21.1815L11.4786 26.703C11.8254 26.901 12.1658 27 12.5 27C12.8342 27 13.1788 26.901 13.5338 26.703L23.2668 21.1815C23.8364 20.8514 24.2676 20.4779 24.5603 20.061C24.8534 19.6445 25 18.9947 25 18.1116V8.30682C25 7.66314 24.8783 7.13088 24.6349 6.71004C24.3911 6.28884 24.0094 5.9256 23.4898 5.62032L14.7221 0.64368C13.9796 0.21456 13.241 0 12.5065 0C11.7719 0 11.0289 0.21456 10.2774 0.64368L1.52314 5.62032C0.994901 5.92596 0.608895 6.2892 0.365121 6.71004C0.121707 7.13088 0 7.66314 0 8.30682V18.1116C0 18.9947 0.148533 19.6445 0.445599 20.061C0.742665 20.4775 1.17206 20.851 1.73379 21.1815ZM2.84805 19.5475C2.48437 19.3412 2.2325 19.1245 2.09243 18.8973C1.95199 18.6705 1.88178 18.3879 1.88178 18.0495V8.70264L11.5283 14.2117V24.4868L2.84805 19.5475ZM22.1644 19.5475L13.4722 24.4868V14.2117L23.1171 8.70264V18.0495C23.1171 18.3879 23.0469 18.6705 22.9065 18.8973C22.7661 19.1241 22.5189 19.341 22.1649 19.548M12.507 12.4794L2.9469 7.0686L6.77311 4.87782L16.3322 10.3124L12.507 12.4794ZM18.3263 9.18648L8.72942 3.76326L11.107 2.4138C12.0483 1.8774 12.9811 1.8774 13.9054 2.4138L22.0655 7.0686L18.3263 9.18648Z"/>
</mask>
<path d="M1.73379 21.1815L11.4786 26.703C11.8254 26.901 12.1658 27 12.5 27C12.8342 27 13.1788 26.901 13.5338 26.703L23.2668 21.1815C23.8364 20.8514 24.2676 20.4779 24.5603 20.061C24.8534 19.6445 25 18.9947 25 18.1116V8.30682C25 7.66314 24.8783 7.13088 24.6349 6.71004C24.3911 6.28884 24.0094 5.9256 23.4898 5.62032L14.7221 0.64368C13.9796 0.21456 13.241 0 12.5065 0C11.7719 0 11.0289 0.21456 10.2774 0.64368L1.52314 5.62032C0.994901 5.92596 0.608895 6.2892 0.365121 6.71004C0.121707 7.13088 0 7.66314 0 8.30682V18.1116C0 18.9947 0.148533 19.6445 0.445599 20.061C0.742665 20.4775 1.17206 20.851 1.73379 21.1815ZM2.84805 19.5475C2.48437 19.3412 2.2325 19.1245 2.09243 18.8973C1.95199 18.6705 1.88178 18.3879 1.88178 18.0495V8.70264L11.5283 14.2117V24.4868L2.84805 19.5475ZM22.1644 19.5475L13.4722 24.4868V14.2117L23.1171 8.70264V18.0495C23.1171 18.3879 23.0469 18.6705 22.9065 18.8973C22.7661 19.1241 22.5189 19.341 22.1649 19.548M12.507 12.4794L2.9469 7.0686L6.77311 4.87782L16.3322 10.3124L12.507 12.4794ZM18.3263 9.18648L8.72942 3.76326L11.107 2.4138C12.0483 1.8774 12.9811 1.8774 13.9054 2.4138L22.0655 7.0686L18.3263 9.18648Z" fill="#A72831"/>
<path d="M1.73379 21.1815L1.23576 22.028L1.24265 22.0321L1.24962 22.036L1.73379 21.1815ZM11.4786 26.703L11.9656 25.8501L11.9628 25.8485L11.4786 26.703ZM13.5338 26.703L14.0122 27.5608L14.0184 27.5573L13.5338 26.703ZM23.2668 21.1815L23.7514 22.0358L23.7592 22.0313L23.2668 21.1815ZM24.5603 20.061L23.7571 19.4958L23.7566 19.4966L24.5603 20.061ZM24.6349 6.71004L25.4851 6.2183L25.4849 6.21807L24.6349 6.71004ZM23.4898 5.62032L23.9874 4.77352L23.981 4.7698L23.9746 4.76618L23.4898 5.62032ZM14.7221 0.64368L14.2306 1.49405L14.2372 1.49782L14.7221 0.64368ZM10.2774 0.64368L10.7628 1.4975L10.7644 1.49657L10.2774 0.64368ZM1.52314 5.62032L1.03774 4.76647L1.03127 4.77022L1.52314 5.62032ZM0.365121 6.71004L-0.484737 6.21775L-0.485052 6.2183L0.365121 6.71004ZM2.84805 19.5475L3.33379 18.6938L3.33261 18.6932L2.84805 19.5475ZM2.09243 18.8973L2.92842 18.3818L2.92746 18.3803L2.09243 18.8973ZM1.88178 8.70264L2.36884 7.84978L0.899636 7.01072V8.70264H1.88178ZM11.5283 14.2117H12.5105V13.6416L12.0154 13.3589L11.5283 14.2117ZM11.5283 24.4868L11.0426 25.3405L12.5105 26.1757V24.4868H11.5283ZM13.4722 24.4868H12.4901V26.1746L13.9575 25.3407L13.4722 24.4868ZM13.4722 14.2117L12.9851 13.3589L12.4901 13.6416V14.2117H13.4722ZM23.1171 8.70264H24.0993V7.01058L22.63 7.84981L23.1171 8.70264ZM12.507 12.4794L12.0233 13.3341L12.5073 13.6081L12.9911 13.3339L12.507 12.4794ZM2.9469 7.0686L2.45888 6.21628L0.961666 7.07354L2.46313 7.92334L2.9469 7.0686ZM6.77311 4.87782L7.25852 4.02402L6.77138 3.74707L6.28509 4.0255L6.77311 4.87782ZM16.3322 10.3124L16.8163 11.1669L18.322 10.3139L16.8176 9.45858L16.3322 10.3124ZM18.3263 9.18648L17.8431 10.0415L18.3268 10.3149L18.8103 10.0411L18.3263 9.18648ZM8.72942 3.76326L8.24463 2.90911L6.73642 3.76512L8.24622 4.61832L8.72942 3.76326ZM11.107 2.4138L11.5918 3.26796L11.5933 3.26711L11.107 2.4138ZM13.9054 2.4138L13.4124 3.26329L13.4188 3.2669L13.9054 2.4138ZM22.0655 7.0686L22.5496 7.92319L24.053 7.07164L22.5522 6.2155L22.0655 7.0686ZM1.73379 21.1815L1.24962 22.036L10.9945 27.5575L11.4786 26.703L11.9628 25.8485L2.21796 20.327L1.73379 21.1815ZM11.4786 26.703L10.9916 27.5559C11.4578 27.8221 11.9645 27.9821 12.5 27.9821V27V26.0179C12.3672 26.0179 12.193 25.9799 11.9656 25.8501L11.4786 26.703ZM12.5 27V27.9821C13.0343 27.9821 13.5423 27.8228 14.0122 27.5608L13.5338 26.703L13.0554 25.8452C12.8152 25.9792 12.634 26.0179 12.5 26.0179V27ZM13.5338 26.703L14.0184 27.5573L23.7514 22.0358L23.2668 21.1815L22.7821 20.3272L13.0492 25.8487L13.5338 26.703ZM23.2668 21.1815L23.7592 22.0313C24.4174 21.6498 24.9693 21.1877 25.3641 20.6254L24.5603 20.061L23.7566 19.4966C23.5659 19.7681 23.2554 20.053 22.7743 20.3317L23.2668 21.1815ZM24.5603 20.061L25.3635 20.6262C25.8311 19.9618 25.9821 19.0651 25.9821 18.1116H25H24.0179C24.0179 18.9242 23.8758 19.3271 23.7571 19.4958L24.5603 20.061ZM25 18.1116H25.9821V8.30682H25H24.0179V18.1116H25ZM25 8.30682H25.9821C25.9821 7.5447 25.8385 6.82943 25.4851 6.2183L24.6349 6.71004L23.7847 7.20178C23.9181 7.43233 24.0179 7.78158 24.0179 8.30682H25ZM24.6349 6.71004L25.4849 6.21807C25.1382 5.61905 24.6186 5.14442 23.9874 4.77352L23.4898 5.62032L22.9923 6.46712C23.4002 6.70678 23.644 6.95863 23.7848 7.20201L24.6349 6.71004ZM23.4898 5.62032L23.9746 4.76618L15.2069 -0.210462L14.7221 0.64368L14.2372 1.49782L23.005 6.47446L23.4898 5.62032ZM14.7221 0.64368L15.2135 -0.206659C14.3469 -0.707526 13.4406 -0.982143 12.5065 -0.982143V0V0.982143C13.0415 0.982143 13.6123 1.13665 14.2306 1.49402L14.7221 0.64368ZM12.5065 0V-0.982143C11.5729 -0.982143 10.6636 -0.70786 9.79038 -0.209206L10.2774 0.64368L10.7644 1.49657C11.3941 1.13698 11.9709 0.982143 12.5065 0.982143V0ZM10.2774 0.64368L9.79202 -0.210141L1.03776 4.7665L1.52314 5.62032L2.00852 6.47414L10.7628 1.4975L10.2774 0.64368ZM1.52314 5.62032L1.03127 4.77022C0.391828 5.1402 -0.135634 5.61508 -0.484737 6.21775L0.365121 6.71004L1.21498 7.20233C1.35343 6.96332 1.59797 6.71172 2.01501 6.47042L1.52314 5.62032ZM0.365121 6.71004L-0.485052 6.2183C-0.838529 6.82943 -0.982143 7.5447 -0.982143 8.30682H0H0.982143C0.982143 7.78158 1.08194 7.43233 1.21529 7.20178L0.365121 6.71004ZM0 8.30682H-0.982143V18.1116H0H0.982143V8.30682H0ZM0 18.1116H-0.982143C-0.982143 19.0668 -0.828602 19.9659 -0.35401 20.6313L0.445599 20.061L1.24521 19.4907C1.12567 19.3231 0.982143 18.9225 0.982143 18.1116H0ZM0.445599 20.061L-0.35401 20.6313C0.0418155 21.1863 0.586599 21.6461 1.23576 22.028L1.73379 21.1815L2.23181 20.335C1.75752 20.056 1.44351 19.7688 1.24521 19.4907L0.445599 20.061ZM2.84805 19.5475L3.33261 18.6932C3.03888 18.5266 2.94602 18.4104 2.92841 18.3818L2.09243 18.8973L1.25644 19.4128C1.51898 19.8386 1.92987 20.1558 2.3635 20.4018L2.84805 19.5475ZM2.09243 18.8973L2.92746 18.3803C2.90589 18.3454 2.86392 18.2538 2.86392 18.0495H1.88178H0.899636C0.899636 18.522 0.998095 18.9956 1.25739 19.4143L2.09243 18.8973ZM1.88178 18.0495H2.86392V8.70264H1.88178H0.899636V18.0495H1.88178ZM1.88178 8.70264L1.39471 9.5555L11.0413 15.0646L11.5283 14.2117L12.0154 13.3589L2.36884 7.84978L1.88178 8.70264ZM11.5283 14.2117H10.5462V24.4868H11.5283H12.5105V14.2117H11.5283ZM11.5283 24.4868L12.0141 23.6332L3.33379 18.6938L2.84805 19.5475L2.36231 20.4011L11.0426 25.3405L11.5283 24.4868ZM22.1644 19.5475L21.6791 18.6936L12.987 23.6329L13.4722 24.4868L13.9575 25.3407L22.6496 20.4014L22.1644 19.5475ZM13.4722 24.4868H14.4544V14.2117H13.4722H12.4901V24.4868H13.4722ZM13.4722 14.2117L13.9593 15.0645L23.6043 9.55547L23.1171 8.70264L22.63 7.84981L12.9851 13.3589L13.4722 14.2117ZM23.1171 8.70264H22.135V18.0495H23.1171H24.0993V8.70264H23.1171ZM23.1171 18.0495H22.135C22.135 18.2538 22.093 18.3454 22.0715 18.3803L22.9065 18.8973L23.7415 19.4143C24.0008 18.9956 24.0993 18.522 24.0993 18.0495H23.1171ZM22.9065 18.8973L22.0715 18.3803C22.0488 18.4169 21.9524 18.5345 21.6691 18.7002L22.1649 19.548L22.6607 20.3958C23.0854 20.1475 23.4833 19.8313 23.7415 19.4143L22.9065 18.8973ZM12.507 12.4794L12.9908 11.6247L3.43066 6.21386L2.9469 7.0686L2.46313 7.92334L12.0233 13.3341L12.507 12.4794ZM2.9469 7.0686L3.43491 7.92092L7.26112 5.73014L6.77311 4.87782L6.28509 4.0255L2.45888 6.21628L2.9469 7.0686ZM6.77311 4.87782L6.2877 5.73162L15.8467 11.1662L16.3322 10.3124L16.8176 9.45858L7.25852 4.02402L6.77311 4.87782ZM16.3322 10.3124L15.848 9.45784L12.0229 11.6249L12.507 12.4794L12.9911 13.3339L16.8163 11.1669L16.3322 10.3124ZM18.3263 9.18648L18.8095 8.33142L9.21262 2.9082L8.72942 3.76326L8.24622 4.61832L17.8431 10.0415L18.3263 9.18648ZM8.72942 3.76326L9.21422 4.61741L11.5918 3.26795L11.107 2.4138L10.6222 1.55965L8.24463 2.90911L8.72942 3.76326ZM11.107 2.4138L11.5933 3.26711C12.2359 2.90091 12.7957 2.90535 13.4124 3.26327L13.9054 2.4138L14.3984 1.56433C13.1665 0.849451 11.8607 0.853893 10.6207 1.56049L11.107 2.4138ZM13.9054 2.4138L13.4188 3.2669L21.5789 7.92171L22.0655 7.0686L22.5522 6.2155L14.392 1.5607L13.9054 2.4138ZM22.0655 7.0686L21.5815 6.21401L17.8422 8.33189L18.3263 9.18648L18.8103 10.0411L22.5496 7.92319L22.0655 7.0686Z" fill="#5E5E5E" mask="url(#path-1-inside-1_3_44)"/>
</svg>
