<svg width="20" height="20" viewBox="0 0 20 20" fill="none" xmlns="http://www.w3.org/2000/svg">
<path d="M17.7504 5.55312C17.7504 5.74648 17.7504 5.90117 17.7504 6.09453C17.7504 11.4699 13.6898 17.6188 6.22617 17.6188C3.90586 17.6188 1.77891 16.9613 0 15.8012C0.309375 15.8398 0.61875 15.8785 0.966797 15.8785C2.86172 15.8785 4.60195 15.2211 5.99414 14.1383C4.21523 14.0996 2.70703 12.9395 2.2043 11.3152C2.475 11.3539 2.70703 11.3926 2.97773 11.3926C3.32578 11.3926 3.7125 11.3152 4.02188 11.2379C2.16563 10.8512 0.773438 9.22695 0.773438 7.25469V7.21602C1.31484 7.52539 1.97227 7.68008 2.62969 7.71875C1.5082 6.98398 0.812109 5.74648 0.812109 4.3543C0.812109 3.58086 1.00547 2.88476 1.35352 2.30469C3.36445 4.74101 6.38086 6.36523 9.74531 6.55859C9.66797 6.24922 9.6293 5.93984 9.6293 5.63047C9.6293 3.3875 11.4469 1.56992 13.6898 1.56992C14.85 1.56992 15.8941 2.03398 16.6676 2.84609C17.557 2.65273 18.4465 2.30469 19.2199 1.84062C18.9105 2.80742 18.2918 3.58086 17.441 4.08359C18.2531 4.00625 19.0652 3.77422 19.7613 3.46484C19.2199 4.27695 18.5238 4.97305 17.7504 5.55312Z" fill="#0093D4"/>
</svg>
