<svg width="44" height="36" viewBox="0 0 44 36" fill="none" xmlns="http://www.w3.org/2000/svg">
<path d="M16 24C10.66 24 0 26.68 0 32V36H32V32C32 26.68 21.34 24 16 24ZM25.5 10H24C24 7.04 22.38 4.5 20 3.1V5C20 5.56 19.56 6 19 6C18.44 6 18 5.56 18 5V2.28C17.36 2.12 16.7 2 16 2C15.3 2 14.64 2.12 14 2.28V5C14 5.56 13.56 6 13 6C12.44 6 12 5.56 12 5V3.1C9.62 4.5 8 7.04 8 10H6.5V12H25.5V10ZM16 20C19.72 20 22.82 17.44 23.72 14H8.28C9.18 17.44 12.28 20 16 20ZM41.96 6.46L43.82 4.8L42.32 2.2L39.94 2.98C39.66 2.76 39.34 2.58 39 2.44L38.5 0H35.5L35 2.44C34.66 2.58 34.34 2.76 34.04 2.98L31.68 2.2L30.18 4.8L32.04 6.46C32 6.8 32 7.16 32.04 7.5L30.18 9.2L31.68 11.8L34.08 11.04C34.34 11.24 34.64 11.4 34.94 11.54L35.5 14H38.5L39.04 11.56C39.36 11.42 39.64 11.26 39.92 11.06L42.3 11.82L43.8 9.22L41.94 7.52C42 7.14 41.98 6.8 41.96 6.46ZM37 9.5C36.337 9.5 35.7011 9.23661 35.2322 8.76777C34.7634 8.29893 34.5 7.66304 34.5 7C34.5 6.33696 34.7634 5.70107 35.2322 5.23223C35.7011 4.76339 36.337 4.5 37 4.5C37.663 4.5 38.2989 4.76339 38.7678 5.23223C39.2366 5.70107 39.5 6.33696 39.5 7C39.5 7.66304 39.2366 8.29893 38.7678 8.76777C38.2989 9.23661 37.663 9.5 37 9.5ZM36.8 15.58L35.1 16.14C34.9 15.98 34.68 15.86 34.44 15.76L34.08 14H31.94L31.58 15.74C31.34 15.84 31.1 15.98 30.9 16.12L29.22 15.56L28.14 17.42L29.46 18.6C29.44 18.86 29.44 19.1 29.46 19.34L28.14 20.56L29.22 22.42L30.94 21.88C31.14 22.02 31.34 22.14 31.56 22.24L31.92 24H34.06L34.44 22.26C34.66 22.16 34.88 22.04 35.08 21.9L36.78 22.44L37.86 20.58L36.54 19.36C36.56 19.1 36.56 18.86 36.54 18.62L37.86 17.44L36.8 15.58ZM33 20.78C32.02 20.78 31.22 19.98 31.22 19C31.22 18.02 32.02 17.22 33 17.22C33.98 17.22 34.78 18.02 34.78 19C34.78 19.98 33.98 20.78 33 20.78Z" fill="#07314A"/>
</svg>
