<svg width="32" height="40" viewBox="0 0 32 40" fill="none" xmlns="http://www.w3.org/2000/svg">
<path d="M31.7105 13.2012C31.5614 12.8586 31.3195 12.5646 31.0119 12.3525C30.7044 12.1404 30.3436 12.0187 29.9705 12.0012H20.8105L23.3505 2.52117C23.4314 2.22452 23.4428 1.91322 23.3838 1.61144C23.3248 1.30967 23.1971 1.02555 23.0105 0.781173C22.8241 0.539144 22.5849 0.343003 22.311 0.207796C22.0371 0.0725884 21.7359 0.00190712 21.4305 0.00117296H7.43046C6.97893 -0.0142935 6.53547 0.123572 6.1723 0.392317C5.80914 0.661061 5.54766 1.04485 5.43046 1.48117L0.070458 21.4812C-0.0104377 21.7778 -0.0218452 22.0891 0.0371223 22.3909C0.0960898 22.6927 0.223843 22.9768 0.410457 23.2212C0.598828 23.4659 0.84131 23.6637 1.1189 23.799C1.39649 23.9343 1.70165 24.0035 2.01046 24.0012H9.75046L6.13046 37.4812C6.01185 37.9158 6.0435 38.3778 6.22026 38.7923C6.39703 39.2067 6.70856 39.5493 7.10438 39.7646C7.50019 39.9799 7.9571 40.0552 8.40106 39.9783C8.84503 39.9015 9.25004 39.677 9.55046 39.3412L31.3505 15.3412C31.61 15.0569 31.7821 14.7038 31.8459 14.3242C31.9098 13.9446 31.8628 13.5547 31.7105 13.2012ZM12.1305 30.5612L14.2705 22.5612C14.3514 22.2645 14.3628 21.9532 14.3038 21.6514C14.2448 21.3497 14.1171 21.0655 13.9305 20.8212C13.7441 20.5791 13.5049 20.383 13.231 20.2478C12.9571 20.1126 12.6559 20.0419 12.3505 20.0412H4.67046L8.95046 4.00117H18.8105L16.2705 13.4812C16.1889 13.7833 16.1794 14.1003 16.2427 14.4068C16.3059 14.7132 16.4402 15.0006 16.6348 15.2457C16.8293 15.4908 17.0786 15.6868 17.3627 15.8181C17.6468 15.9493 17.9577 16.012 18.2705 16.0012H25.4105L12.1305 30.5612Z" fill="#07314A"/>
</svg>
