<svg width="40" height="37" viewBox="0 0 40 37" fill="none" xmlns="http://www.w3.org/2000/svg">
<path d="M37.9603 17.865L37.0453 16.935L36.6703 16.575C37.1547 15.0958 37.4274 13.5556 37.4803 12C37.4803 8.8174 36.216 5.76516 33.9656 3.51472C31.7152 1.26428 28.6629 0 25.4803 0H19.9603C19.3378 0 18.7258 0.15 18.1753 0.435C17.5023 0.27 16.8223 0.15 16.1353 0.0750003H14.9803C11.7977 0.0750003 8.74546 1.33928 6.49503 3.58972C4.24459 5.84015 2.98031 8.8924 2.98031 12.075V15.225L1.19531 16.95C0.6224 17.5297 0.233359 18.2657 0.0769481 19.0656C-0.0794624 19.8655 0.00371709 20.6937 0.316061 21.4466C0.628404 22.1994 1.15601 22.8433 1.83276 23.2975C2.5095 23.7518 3.30527 23.9961 4.12031 24C4.29431 24.015 4.46931 24.015 4.64531 24C4.83131 24.6945 5.19281 25.329 5.69531 25.845C6.38857 26.5186 7.29639 26.9274 8.26031 27C8.34354 27.9672 8.7628 28.8747 9.44531 29.565C10.1294 30.2541 11.0414 30.6701 12.0103 30.735C12.0805 31.7025 12.4957 32.6127 13.1803 33.3C13.9003 34.0253 14.8646 34.4563 15.8852 34.509C16.9058 34.5617 17.9095 34.2323 18.7003 33.585L19.9303 34.8C20.3136 35.1855 20.7694 35.4914 21.2714 35.7002C21.7734 35.9089 22.3117 36.0164 22.8553 36.0164C23.399 36.0164 23.9373 35.9089 24.4392 35.7002C24.9412 35.4914 25.397 35.1855 25.7803 34.8C26.4838 34.1167 26.911 33.1982 26.9803 32.22C27.9492 32.1551 28.8612 31.7391 29.5453 31.05C30.2137 30.3592 30.6219 29.458 30.7003 28.5C31.6675 28.4168 32.575 27.9975 33.2653 27.315C33.8135 26.7683 34.1935 26.076 34.3603 25.32C35.0128 25.4332 35.6832 25.3829 36.3115 25.1734C36.9397 24.964 37.5062 24.6021 37.9603 24.12C38.3726 23.7102 38.6997 23.2229 38.923 22.6861C39.1462 22.1494 39.2612 21.5738 39.2612 20.9925C39.2612 20.4112 39.1462 19.8356 38.923 19.2989C38.6997 18.7621 38.3726 18.2748 37.9603 17.865ZM19.9603 3H25.4803C27.8673 3 30.1564 3.94821 31.8443 5.63604C33.5321 7.32387 34.4803 9.61305 34.4803 12C34.4532 12.7116 34.3629 13.4194 34.2103 14.115L28.0453 7.935C27.9051 7.79598 27.7389 7.68599 27.5562 7.61134C27.3734 7.5367 27.1777 7.49886 26.9803 7.5H20.2603C19.9237 7.49769 19.5962 7.60864 19.3303 7.815L16.3303 10.11C15.9499 10.3691 15.4852 10.4741 15.0303 10.4035C14.5754 10.3329 14.1644 10.0922 13.8803 9.72996C13.5963 9.36774 13.4604 8.91113 13.5004 8.45255C13.5403 7.99397 13.7529 7.56769 14.0953 7.26L19.2703 3.21C19.4657 3.05573 19.7121 2.98075 19.9603 3ZM3.31031 20.685C3.10129 20.4671 2.98458 20.1769 2.98458 19.875C2.98458 19.5731 3.10129 19.2829 3.31031 19.065L5.54531 16.83C5.65145 16.7237 5.77781 16.6397 5.91692 16.5831C6.05604 16.5264 6.2051 16.4981 6.35531 16.5C6.50324 16.4984 6.64995 16.5269 6.78659 16.5836C6.92323 16.6403 7.04696 16.7241 7.15031 16.83C7.25734 16.936 7.3423 17.0622 7.40028 17.2012C7.45827 17.3402 7.48812 17.4894 7.48812 17.64C7.48812 17.7906 7.45827 17.9398 7.40028 18.0788C7.3423 18.2178 7.25734 18.344 7.15031 18.45L4.93031 20.685C4.70909 20.8874 4.42013 20.9996 4.12031 20.9996C3.82048 20.9996 3.53152 20.8874 3.31031 20.685ZM7.48031 22.875C7.4798 22.7258 7.51019 22.5782 7.56957 22.4414C7.62895 22.3046 7.71602 22.1815 7.82531 22.08L10.0453 19.845C10.2581 19.6302 10.5476 19.5087 10.85 19.5073C11.1524 19.5059 11.443 19.6247 11.6578 19.8375C11.8726 20.0503 11.9941 20.3398 11.9955 20.6422C11.9969 20.9446 11.8781 21.2352 11.6653 21.45L9.43031 23.685C9.29622 23.8149 9.13264 23.9104 8.95357 23.9633C8.77451 24.0161 8.58529 24.0248 8.40214 23.9885C8.219 23.9523 8.04737 23.8721 7.90197 23.755C7.75658 23.6379 7.64174 23.4872 7.56731 23.316C7.50681 23.177 7.47713 23.0266 7.48031 22.875ZM11.5603 25.875L13.7953 23.64C13.9015 23.5337 14.0278 23.4497 14.1669 23.3931C14.306 23.3364 14.4551 23.3081 14.6053 23.31C14.7532 23.3084 14.9 23.3369 15.0366 23.3936C15.1732 23.4503 15.297 23.5341 15.4003 23.64C15.5073 23.746 15.5923 23.8722 15.6503 24.0112C15.7083 24.1502 15.7381 24.2994 15.7381 24.45C15.7381 24.6006 15.7083 24.7498 15.6503 24.8888C15.5923 25.0278 15.5073 25.154 15.4003 25.26L13.1803 27.435C12.9634 27.6396 12.6753 27.7516 12.3772 27.7473C12.0791 27.7429 11.7944 27.6225 11.5836 27.4117C11.3728 27.2009 11.2524 26.9162 11.2481 26.6181C11.2437 26.32 11.3557 26.0319 11.5603 25.815V25.875ZM15.3103 31.23C15.2033 31.124 15.1183 30.9978 15.0603 30.8588C15.0023 30.7198 14.9725 30.5706 14.9725 30.42C14.9725 30.2694 15.0023 30.1202 15.0603 29.9812C15.1183 29.8422 15.2033 29.716 15.3103 29.61L17.5303 27.39C17.7451 27.1739 18.0357 27.0502 18.3403 27.045C18.4901 27.0458 18.6384 27.0761 18.7765 27.1342C18.9146 27.1923 19.0399 27.2771 19.1452 27.3837C19.2505 27.4902 19.3338 27.6165 19.3903 27.7553C19.4467 27.8941 19.4753 28.0427 19.4743 28.1925C19.4744 28.4919 19.3582 28.7796 19.1503 28.995L16.9153 31.23C16.6923 31.4302 16.4002 31.5358 16.1007 31.5246C15.8012 31.5134 15.5178 31.3863 15.3103 31.17V31.23ZM34.8103 22.41C34.2484 22.2587 33.7329 21.97 33.3103 21.57V21.495L30.3103 18.495C30.0279 18.2125 29.6448 18.0539 29.2453 18.0539C28.8459 18.0539 28.4628 18.2125 28.1803 18.495C27.8979 18.7775 27.7392 19.1605 27.7392 19.56C27.7392 19.9595 27.8979 20.3425 28.1803 20.625L31.1803 23.625C31.3611 23.8437 31.4538 24.1219 31.4404 24.4053C31.427 24.6887 31.3084 24.9569 31.1078 25.1575C30.9072 25.3581 30.639 25.4767 30.3556 25.4901C30.0722 25.5035 29.794 25.4108 29.5753 25.23C29.438 25.0833 29.2727 24.9657 29.0891 24.884C28.9055 24.8024 28.7074 24.7584 28.5065 24.7547C28.3056 24.7511 28.1061 24.7877 27.9196 24.8626C27.7332 24.9375 27.5636 25.049 27.4211 25.1905C27.2785 25.3321 27.1658 25.5008 27.0896 25.6868C27.0134 25.8727 26.9754 26.072 26.9776 26.2729C26.9799 26.4738 27.0224 26.6722 27.1028 26.8564C27.1831 27.0405 27.2996 27.2067 27.4453 27.345C27.5519 27.4497 27.6365 27.5746 27.6943 27.7124C27.7521 27.8502 27.7819 27.9981 27.7819 28.1475C27.7819 28.2969 27.7521 28.4448 27.6943 28.5826C27.6365 28.7204 27.5519 28.8453 27.4453 28.95C27.3393 29.057 27.2131 29.142 27.0741 29.2C26.9351 29.258 26.7859 29.2878 26.6353 29.2878C26.4847 29.2878 26.3355 29.258 26.1965 29.2C26.0575 29.142 25.9313 29.057 25.8253 28.95C25.5443 28.6706 25.1641 28.5138 24.7678 28.5138C24.3715 28.5138 23.9914 28.6706 23.7103 28.95C23.4309 29.231 23.2741 29.6112 23.2741 30.0075C23.2741 30.4038 23.4309 30.784 23.7103 31.065C23.9251 31.2778 24.0466 31.5673 24.048 31.8697C24.0494 32.1721 23.9306 32.4627 23.7178 32.6775C23.505 32.8923 23.2155 33.0138 22.9131 33.0152C22.6107 33.0166 22.3201 32.8978 22.1053 32.685L20.9053 31.485L21.3253 31.08C21.7113 30.6954 22.0175 30.2384 22.2265 29.7351C22.4354 29.2319 22.543 28.6924 22.543 28.1475C22.543 27.6026 22.4354 27.0631 22.2265 26.5599C22.0175 26.0566 21.7113 25.5996 21.3253 25.215C20.6297 24.5007 19.695 24.0681 18.7003 24C18.6301 23.0325 18.2149 22.1223 17.5303 21.435C16.8395 20.7666 15.9383 20.3585 14.9803 20.28C14.8971 19.3128 14.4778 18.4053 13.7953 17.715C13.3515 17.2577 12.8074 16.9099 12.206 16.699C11.6047 16.4882 10.9625 16.42 10.3303 16.5C10.0844 15.562 9.51021 14.7434 8.71196 14.1928C7.91372 13.6423 6.94444 13.3965 5.98031 13.5V12C5.97937 9.65658 6.89249 7.40521 8.52556 5.72452C10.1586 4.04384 12.3828 3.0664 14.7253 3L12.3253 4.875C11.3415 5.66834 10.709 6.81668 10.5644 8.07221C10.4198 9.32775 10.7746 10.5898 11.5523 11.586C12.33 12.5823 13.4682 13.2328 14.7213 13.3972C15.9744 13.5617 17.2419 13.2268 18.2503 12.465L20.7703 10.5H26.3653L32.2753 16.5L35.8303 20.04C36.0791 20.3156 36.2168 20.6737 36.2168 21.045C36.2168 21.4163 36.0791 21.7744 35.8303 22.05C35.7007 22.1929 35.5336 22.2967 35.3481 22.3497C35.1626 22.4028 34.9659 22.4028 34.7803 22.35L34.8103 22.41Z" fill="#07314A"/>
</svg>
