<svg width="64" height="64" viewBox="0 0 64 64" fill="none" xmlns="http://www.w3.org/2000/svg">
<path d="M32 5.33301C32.7073 5.33301 33.3856 5.61396 33.8857 6.11406C34.3858 6.61415 34.6667 7.29243 34.6667 7.99967C34.6667 8.70692 34.3858 9.3852 33.8857 9.88529C33.3856 10.3854 32.7073 10.6663 32 10.6663C27.7807 10.6663 23.6561 11.9175 20.1479 14.2617C16.6396 16.6058 13.9053 19.9376 12.2906 23.8358C10.6759 27.7339 10.2535 32.0233 11.0766 36.1616C11.8998 40.2999 13.9316 44.1011 16.9151 47.0846C19.8986 50.0681 23.6999 52.0999 27.8381 52.9231C31.9764 53.7462 36.2658 53.3238 40.164 51.7091C44.0621 50.0944 47.3939 47.3601 49.7381 43.8518C52.0822 40.3436 53.3334 36.219 53.3334 31.9997C53.3334 31.2924 53.6143 30.6142 54.1144 30.1141C54.6145 29.614 55.2928 29.333 56 29.333C56.7073 29.333 57.3856 29.614 57.8857 30.1141C58.3858 30.6142 58.6667 31.2924 58.6667 31.9997C58.6667 46.7277 46.728 58.6663 32 58.6663C17.272 58.6663 5.33337 46.7277 5.33337 31.9997C5.33337 17.2717 17.272 5.33301 32 5.33301ZM32 15.9997C32.7073 15.9997 33.3856 16.2806 33.8857 16.7807C34.3858 17.2808 34.6667 17.9591 34.6667 18.6663C34.6667 19.3736 34.3858 20.0519 33.8857 20.552C33.3856 21.0521 32.7073 21.333 32 21.333C29.8904 21.333 27.8281 21.9586 26.074 23.1307C24.3198 24.3027 22.9527 25.9686 22.1453 27.9177C21.338 29.8668 21.1268 32.0115 21.5383 34.0806C21.9499 36.1498 22.9658 38.0504 24.4576 39.5421C25.9493 41.0339 27.8499 42.0498 29.9191 42.4614C31.9882 42.873 34.1329 42.6617 36.082 41.8544C38.0311 41.0471 39.697 39.6799 40.869 37.9258C42.0411 36.1716 42.6667 34.1093 42.6667 31.9997C42.6667 31.2924 42.9477 30.6142 43.4478 30.1141C43.9478 29.614 44.6261 29.333 45.3334 29.333C46.0406 29.333 46.7189 29.614 47.219 30.1141C47.7191 30.6142 48 31.2924 48 31.9997C48 35.1642 47.0617 38.2576 45.3036 40.8888C43.5454 43.52 41.0466 45.5707 38.123 46.7817C35.1994 47.9927 31.9823 48.3096 28.8786 47.6922C25.7749 47.0749 22.924 45.551 20.6863 43.3134C18.4487 41.0757 16.9248 38.2248 16.3075 35.1211C15.6901 32.0174 16.007 28.8004 17.218 25.8767C18.429 22.9531 20.4797 20.4543 23.1109 18.6962C25.7421 16.9381 28.8355 15.9997 32 15.9997ZM49.5227 5.59967C49.8763 5.59967 50.2155 5.74015 50.4655 5.9902C50.7156 6.24025 50.856 6.57939 50.856 6.93301V11.813C50.8567 12.1662 50.9975 12.5046 51.2475 12.7541C51.4975 13.0036 51.8362 13.1437 52.1894 13.1437H57.0667C57.4203 13.1437 57.7595 13.2841 58.0095 13.5342C58.2596 13.7842 58.4 14.1234 58.4 14.477V16.917L53.3654 21.9517C52.3654 22.9519 51.0091 23.514 49.5947 23.5143H44.2614L33.888 33.885C33.3851 34.3708 32.7115 34.6395 32.0123 34.6335C31.3131 34.6274 30.6443 34.3469 30.1499 33.8525C29.6554 33.3581 29.375 32.6893 29.3689 31.9901C29.3628 31.2909 29.6316 30.6173 30.1174 30.1143L40.4907 19.7437V14.4103C40.4903 12.9964 41.0514 11.6401 42.0507 10.6397L47.0907 5.59967H49.5227Z" fill="#07314A"/>
</svg>
