<svg width="23" height="20" viewBox="0 0 23 20" fill="none" xmlns="http://www.w3.org/2000/svg">
<path d="M21.2309 4.50898C21.6949 6.1332 21.6949 9.61367 21.6949 9.61367C21.6949 9.61367 21.6949 13.0555 21.2309 14.7184C20.9988 15.6465 20.2641 16.3426 19.3746 16.5746C17.7117 17 11.1375 17 11.1375 17C11.1375 17 4.52461 17 2.86172 16.5746C1.97227 16.3426 1.2375 15.6465 1.00547 14.7184C0.541406 13.0555 0.541406 9.61367 0.541406 9.61367C0.541406 9.61367 0.541406 6.1332 1.00547 4.50898C1.2375 3.58086 1.97227 2.84609 2.86172 2.61406C4.52461 2.15 11.1375 2.15 11.1375 2.15C11.1375 2.15 17.7117 2.15 19.3746 2.61406C20.2641 2.84609 20.9988 3.58086 21.2309 4.50898ZM8.97188 12.7461L14.4633 9.61367L8.97188 6.48125V12.7461Z" fill="#0093D4"/>
</svg>
